<svg xmlns="http://www.w3.org/2000/svg" width="543.125" height="544.112" viewBox="0 0 543.125 544.112">
  <g id="Group_728" data-name="Group 728" transform="translate(-1240.414 -348)">
    <path id="Path_290" data-name="Path 290" d="M543.009,117.319a8.629,8.629,0,0,0-.469-2.329c-.1-.292-.174-.571-.3-.855a9.1,9.1,0,0,0-1.833-2.657L430.52,2.657A9.015,9.015,0,0,0,427.828.841c-.273-.124-.55-.2-.832-.3a9.089,9.089,0,0,0-2.4-.474C424.439.1,424.274,0,424.081,0H149.364a45.623,45.623,0,0,0-45.786,45.343v66.743C40.627,139.579,0,201.287,0,269.426s40.626,129.846,103.578,157.34v72a45.623,45.623,0,0,0,45.786,45.343H497.339a45.617,45.617,0,0,0,45.786-45.343V117.891c0-.2-.1-.372-.116-.571Zm-31.147-8.5H442.4a9.114,9.114,0,0,1-9.157-9.069V30.96ZM18.507,269.426a153.206,153.206,0,0,1,45.536-109.07A156.251,156.251,0,0,1,174.18,115.261q7.807,0,15.466.744c70.808,6.93,127.795,60.641,138.284,130.334a154.2,154.2,0,0,1,1.914,23.088,151.833,151.833,0,0,1-23.89,82.051,154.24,154.24,0,0,1-48.983,48.491,156.969,156.969,0,0,1-158.1,4.366A153.943,153.943,0,0,1,18.508,269.426ZM280.534,405.653c1.252-.961,2.491-1.913,3.716-2.9a153.571,153.571,0,0,0,24.561-24.314c1-1.213,1.958-2.449,2.929-3.689,1.109-1.435,2.312-2.794,3.371-4.255l78.065,77.4a26.815,26.815,0,0,1,0,38.369,28.09,28.09,0,0,1-38.771,0l-78.167-77.273c1.475-1.063,2.857-2.241,4.3-3.339Zm216.8,120.322H149.364a27.341,27.341,0,0,1-27.472-27.206V433.847c.568.182,1.163.3,1.739.474,1.467.443,2.951.8,4.436,1.2,3.425.908,6.877,1.815,10.364,2.493,1.713.354,3.425.682,5.155.983,3.488.607,7.007,1.085,10.539,1.488,1.578.177,3.134.4,4.717.531,5.075.43,10.181.708,15.337.708a174.151,174.151,0,0,0,86.256-22.76l80.966,80.1a46.065,46.065,0,0,0,44.972,13.386A45.557,45.557,0,0,0,419.6,479.588a45.051,45.051,0,0,0-13.481-44.55l-80.931-80.2a169.841,169.841,0,0,0,22.982-85.416q0-8.615-.841-17.092a170.713,170.713,0,0,0-50.092-104.753A173.711,173.711,0,0,0,174.18,97.124c-5.155,0-10.262.283-15.337.708-1.583.137-3.152.354-4.726.536q-5.285.584-10.512,1.488-2.609.452-5.2.987c-3.443.708-6.859,1.541-10.248,2.466-1.52.407-3.041.77-4.579,1.222-.568.173-1.145.292-1.712.474V45.344a27.341,27.341,0,0,1,27.472-27.206H414.923V99.755a27.341,27.341,0,0,0,27.472,27.206H524.81V498.77a27.338,27.338,0,0,1-27.472,27.206Zm0,0" transform="translate(1240.414 348)" fill="#ff6b3d"/>
    <path id="Path_291" data-name="Path 291" d="M461.839,92.968a9.114,9.114,0,0,0-9.157-9.069H251.223a9.069,9.069,0,1,0,0,18.137H452.682A9.114,9.114,0,0,0,461.839,92.968Zm0,0" transform="translate(1156.869 318.511)" fill="#ff6b3d"/>
    <path id="Path_292" data-name="Path 292" d="M668.742,335.6H558.856a9.069,9.069,0,1,0,0,18.137H668.742a9.069,9.069,0,1,0,0-18.137Zm0,0" transform="translate(1050.695 230.045)" fill="#ff6b3d"/>
    <path id="Path_293" data-name="Path 293" d="M668.742,419.5H558.856a9.069,9.069,0,1,0,0,18.137H668.742a9.069,9.069,0,1,0,0-18.137Zm0,0" transform="translate(1050.695 200.556)" fill="#ff6b3d"/>
    <path id="Path_294" data-name="Path 294" d="M673.074,512.468a9.114,9.114,0,0,0-9.157-9.069H544.872a9.069,9.069,0,1,0,0,18.137H663.916A9.114,9.114,0,0,0,673.074,512.468Zm0,0" transform="translate(1055.521 171.067)" fill="#ff6b3d"/>
    <path id="Path_295" data-name="Path 295" d="M692.378,596.368a9.114,9.114,0,0,0-9.157-9.069H600.806a9.069,9.069,0,1,0,0,18.137h82.415A9.114,9.114,0,0,0,692.378,596.368Zm0,0" transform="translate(1036.217 141.578)" fill="#ff6b3d"/>
    <path id="Path_296" data-name="Path 296" d="M529.4,176.868a9.114,9.114,0,0,0-9.157-9.069H446.989a9.069,9.069,0,1,0,0,18.137h73.258A9.114,9.114,0,0,0,529.4,176.868Zm0,0" transform="translate(1089.304 289.022)" fill="#ff6b3d"/>
    <path id="Path_297" data-name="Path 297" d="M663.421,260.768a9.114,9.114,0,0,0-9.157-9.069H516.906a9.069,9.069,0,1,0,0,18.137H654.264A9.114,9.114,0,0,0,663.421,260.768Zm0,0" transform="translate(1065.174 259.534)" fill="#ff6b3d"/>
    <path id="Path_298" data-name="Path 298" d="M209.273,339.753h64.1a9.069,9.069,0,1,0,0-18.137h-64.1a9.069,9.069,0,1,0,0,18.137Zm0,0" transform="translate(1171.348 234.96)" fill="#ff6b3d"/>
    <path id="Path_299" data-name="Path 299" d="M299.855,414.585a9.114,9.114,0,0,0-9.157-9.069H153.339a9.069,9.069,0,1,0,0,18.137H290.7A9.114,9.114,0,0,0,299.855,414.585Zm0,0" transform="translate(1190.652 205.471)" fill="#ff6b3d"/>
    <path id="Path_300" data-name="Path 300" d="M273.373,489.416h-64.1a9.069,9.069,0,1,0,0,18.137h64.1a9.069,9.069,0,1,0,0-18.137Zm0,0" transform="translate(1171.348 175.982)" fill="#ff6b3d"/>
    <path id="Path_301" data-name="Path 301" d="M258.758,461.358a133.706,133.706,0,0,0,53.423-51.316c.724-1.253,1.511-2.466,2.191-3.737.353-.655.63-1.333.97-1.988,1.391-2.648,2.745-5.3,3.944-8.006s2.146-5.287,3.125-7.953c.282-.77.639-1.523.917-2.3,23.287-67.062-9.354-140.593-74.993-168.936S106.077,215.131,72.31,277.667A134.176,134.176,0,0,0,56.2,341.709a135.6,135.6,0,0,0,66.9,116.913,138.363,138.363,0,0,0,135.664,2.79ZM136.508,445.2a118.063,118.063,0,0,1-27.114-20.116,119.658,119.658,0,0,1-14.943-18q-3.246-4.809-5.983-9.874a117.239,117.239,0,0,1,34.362-150,119.983,119.983,0,0,1,154.9,11.167,117.694,117.694,0,0,1,20.51,139.354v.075a116.467,116.467,0,0,1-48.093,47.6,119.721,119.721,0,0,1-113.643-.173Zm0,0" transform="translate(1221.018 275.681)" fill="#ff6b3d"/>
    <path id="Path_302" data-name="Path 302" d="M725.666,671.2a9.114,9.114,0,0,0-9.157,9.069v36.274a9.114,9.114,0,0,1-9.157,9.068H670.722a9.069,9.069,0,1,0,0,18.137h36.629a27.338,27.338,0,0,0,27.472-27.206V680.268A9.114,9.114,0,0,0,725.666,671.2Zm0,0" transform="translate(1012.087 112.09)" fill="#ff6b3d"/>
  </g>
</svg>
