<svg xmlns="http://www.w3.org/2000/svg" width="294.49" height="345.35" viewBox="0 0 294.49 345.35">
  <g id="Group_760" data-name="Group 760" transform="translate(-3189.26 -6466.65)">
    <path id="Path_530" data-name="Path 530" d="M1198.5,374.41a30.89,30.89,0,0,1,.37,4.76c.05,13.9-22.45,11.87-26.94,27.71-2.85,10.11,20.4,12.7,20.4,12.7-22.31,20.78-51.61,9.68-55.41-6.93a59.264,59.264,0,0,1-.87-19.9l-18.66,19.76-27-29.78-27,29.78-16-16.95c-7.82,8.72-11.94,11.1-16.06,25.09-3.76,12.72-20.6,20.41-39.69,10.26,0,0,11.8-7.31,8.69-18.59s-9.34-11.68-10.9-22.19,10.51-11.68,4.28-21a15,15,0,0,0-2.87-3.2c-42.39,16.21-49.86,57.62-49.86,87.44v43h291.17v-43C1232.09,427.84,1226.61,393.85,1198.5,374.41Z" transform="translate(2250 6314)" fill="#ff6b3d"/>
    <path id="Path_531" data-name="Path 531" d="M1233.75,498H939.26V453.35c0-45.48,17.62-76.25,50.93-89l.92-.35.74.63a16.838,16.838,0,0,1,3.18,3.54c4,6,1.37,9.57-1,12.69-1.89,2.51-3.66,4.88-3,9,.74,5,2.62,7.52,4.8,10.38a31,31,0,0,1,6.06,11.6c2.48,9-3.65,15.76-7.16,18.74a34,34,0,0,0,14.23,3.33c10,0,18.31-5.53,20.74-13.76,3.53-12,7.19-15.85,12.72-21.73,1.14-1.21,2.36-2.51,3.69-4l1.21-1.34,16,17,27-29.81,27,29.81L1138.23,388l-.53,4.9a57.213,57.213,0,0,0,.83,19.35c2.22,9.68,13.63,17,26.55,17a37.15,37.15,0,0,0,23.45-8.57c-5.1-.93-14-3.2-17.21-8.05a7.17,7.17,0,0,1-1-6.2c2.42-8.55,9.57-12.26,15.86-15.53,6.85-3.55,11-6,11-11.72a30.148,30.148,0,0,0-.36-4.52l-.59-3.81,3.16,2.2c22.77,15.74,34.32,42.76,34.32,80.3Zm-291.17-3.31h287.86V453.35c0-34.71-10.07-60.06-29.94-75.42v1.24c0,8-6.49,11.39-12.8,14.67-6,3.1-12.17,6.32-14.2,13.49a3.88,3.88,0,0,0,.54,3.45c3,4.51,14.34,6.7,18.45,7.16l3.58.4-2.64,2.45c-10.45,9.73-21.2,11.77-28.38,11.77-14.42,0-27.22-8.4-29.78-19.54A56.884,56.884,0,0,1,1134,397.3L1117.37,415l-27-29.76-27,29.76-16-17c-.89,1-1.74,1.88-2.54,2.73-5.39,5.73-8.65,9.2-12,20.4-2.85,9.64-12.46,16.13-23.92,16.13a38.56,38.56,0,0,1-18.14-4.88l-2.5-1.38,2.44-1.52c.44-.28,10.7-6.82,8-16.75a27.592,27.592,0,0,0-5.49-10.48c-2.25-3-4.58-6-5.45-11.91-.81-5.5,1.68-8.81,3.68-11.48,2.24-3,3.59-4.77.87-8.86a13.321,13.321,0,0,0-1.85-2.2c-31.75,12.57-47.85,41.34-47.85,85.52Z" transform="translate(2250 6314)"/>
    <path id="Path_532" data-name="Path 532" d="M1131.47,351.9c-3-4.72-5.9-9.93-6.48-20-.06-1.13,0-2.16-.06-3.21a52.42,52.42,0,0,1-31.15,10.5c-16.82,0-32-8.28-42.64-21.48.58,14.6-3.35,10.71,3.26,30.75,1.09,3.29,2.18,6.5,3.08,9.66l32.89,24.66Z" transform="translate(2250 6314)" fill="#ffb37d"/>
    <path id="Path_533" data-name="Path 533" d="M1090.37,384.8,1056,359.06l-.15-.53c-.73-2.56-1.59-5.14-2.46-7.78l-.61-1.82c-4.52-13.73-4.2-16.64-3.69-21.47a58.445,58.445,0,0,0,.35-9.74l-.2-5,3.14,3.87c10.91,13.46,25.59,20.87,41.36,20.87A51,51,0,0,0,1124,327.31l2.61-1.91v3.86c0,.81,0,1.62.05,2.49.56,9.68,3.27,14.63,6.22,19.25l.83,1.3Zm-31.45-27.72,31.45,23.58,38.89-29.17c-2.78-4.54-5.37-10-5.92-19.55a1.108,1.108,0,0,1,0-.18,53.75,53.75,0,0,1-29.55,9c-15.38,0-29.76-6.58-40.94-18.65-.06,2.4-.25,4.16-.42,5.67-.49,4.54-.75,7,3.55,20.08l.61,1.82C1057.4,352.21,1058.21,354.66,1058.92,357.08Z" transform="translate(2250 6314)"/>
    <path id="Path_534" data-name="Path 534" d="M1093.78,339.14a52.42,52.42,0,0,0,31.15-10.5c-.15-24.27,14.43-30.51,17.38-62.6,2-21.73-6.22-30.35-13.64-38A54.771,54.771,0,0,1,1118,211.15c-6,12.39-17.9,24.55-40.17,26.48-6.28.54,4.6,16.87-4.63,27.64-6.54,7.64-29.53-3.24-31.72,12.32-1.92,13.71,7.09,11.7,9.24,33.87.24,2.41.36,4.41.44,6.2C1061.83,330.86,1077,339.14,1093.78,339.14Z" transform="translate(2250 6314)" fill="#ffb37d"/>
    <path id="Path_535" data-name="Path 535" d="M1093.78,340.79c-16.78,0-32.39-7.84-43.93-22.09l-.34-.43v-.55c-.07-1.75-.19-3.73-.42-6.1-1.07-10.94-3.84-15.78-6.07-19.67s-4.19-7.3-3.17-14.59c1.49-10.58,11.48-10.59,19.51-10.59,5.34,0,10.39,0,12.59-2.57,4.74-5.53,3.63-12.71,2.73-18.47-.61-3.84-1-6.62.36-8.4a3.63,3.63,0,0,1,2.66-1.35c22.83-2,33.71-15,38.82-25.55l1.59-3.3,1.42,3.37a52.671,52.671,0,0,0,10.36,16.43c7.21,7.39,16.18,16.58,14.09,39.26-1.51,16.52-6.09,26.38-10.13,35.08-3.92,8.45-7.31,15.74-7.24,27.36v.85l-.68.5a54.261,54.261,0,0,1-32.15,10.81Zm-41-23.75c10.88,13.19,25.42,20.44,41,20.44a50.71,50.71,0,0,0,29.49-9.69c.1-11.88,3.72-19.67,7.54-27.92,3.93-8.45,8.38-18,9.85-34,1.94-21.16-6.08-29.39-13.17-36.65a52.648,52.648,0,0,1-9.63-14.31c-6,10.66-17.69,22.43-39.91,24.35-.85.75-.4,3.63,0,5.94.95,6.1,2.25,14.44-3.47,21.13-3.2,3.72-9.25,3.72-15.11,3.73-9.42,0-15.22.53-16.23,7.74-.86,6.16.58,8.68,2.76,12.48,2.39,4.17,5.36,9.35,6.49,21,.17,2.22.3,4.08.37,5.72Z" transform="translate(2250 6314)"/>
    <path id="Path_536" data-name="Path 536" d="M1138.85,369.17c-1.14-8.27-4.33-12.52-7.38-17.27l-41.1,30.83,27,29.78,18.66-19.76C1137.11,383,1139.62,374.8,1138.85,369.17Z" transform="translate(2250 6314)" fill="#ff6b3d"/>
    <path id="Path_537" data-name="Path 537" d="M1117.37,415l-29.45-32.45,44-33,1.79,2.79c2.81,4.32,5.7,8.78,6.78,16.65.52,3.76-.29,8.38-1.23,13.73-.57,3.25-1.16,6.61-1.55,10.26l-.06.55Zm-24.56-32,24.6,27.12L1134.47,392c.41-3.54,1-6.91,1.52-9.91.89-5.08,1.66-9.46,1.22-12.71-1-7-3.48-11-6.16-15.11Z" transform="translate(2250 6314)"/>
    <path id="Path_538" data-name="Path 538" d="M1057.48,358.07c3,10.33,3.79,20.2-4.93,31.28-1.92,2.44-3.64,4.44-5.22,6.21l16,16.95,27-29.78Z" transform="translate(2250 6314)" fill="#ff6b3d"/>
    <path id="Path_539" data-name="Path 539" d="M1063.36,415l-18.28-19.36,1-1.14c1.57-1.74,3.27-3.72,5.16-6.12,8-10.18,7.65-19.27,4.64-29.8l-1.35-4.73,38.27,28.7Zm-13.79-19.43,13.75,14.56,24.6-27.12-27.7-20.76c1.85,8.69,1.61,18-6.37,28.18-1.54,1.91-2.96,3.57-4.28,5.09Z" transform="translate(2250 6314)"/>
    <path id="Path_540" data-name="Path 540" d="M993.65,369.11c6.23,9.34-5.84,10.51-4.28,21s7.78,10.9,10.9,22.19-8.69,18.59-8.69,18.59c19.09,10.15,35.93,2.46,39.69-10.26,4.12-14,8.24-16.37,16.06-25.09,1.58-1.77,3.3-3.77,5.22-6.21,8.72-11.08,7.88-21,4.93-31.28-.9-3.16-2-6.37-3.08-9.66-6.61-20-2.68-16.15-3.26-30.75-.08-1.79-.2-3.79-.44-6.2-2.15-22.17-11.16-20.16-9.24-33.87,2.19-15.56,25.18-4.68,31.72-12.32,9.23-10.77-1.65-27.1,4.63-27.64,22.27-1.93,34.18-14.09,40.17-26.48-7.72-18.29-8.77-41-2.87-49.77-21.33-17.24-58.62.91-75.88,14.46-29.78,23.37-42.61,45.82-48.3,61.32-6.7,18.25-2.69,22.22-7.36,36.23s-16.92,14.4-16.69,31.67c.19,14.48,7.77,21,8.63,44.91.43,11.83,8.94,10.57,15.27,15.94a15,15,0,0,1,2.87,3.22Z" transform="translate(2250 6314)" fill="#b96b6b"/>
    <path id="Path_541" data-name="Path 541" d="M1009,437.25h0a38.561,38.561,0,0,1-18.14-4.88L988.27,431l2.44-1.52c.44-.28,10.7-6.82,8-16.75a27.592,27.592,0,0,0-5.49-10.48c-2.25-3-4.58-6-5.45-11.91-.81-5.5,1.68-8.81,3.68-11.48,2.24-3,3.59-4.77.87-8.86a13.819,13.819,0,0,0-2.57-2.86,26.078,26.078,0,0,0-5.88-3.45c-4.74-2.23-9.64-4.54-10-13.69a91.214,91.214,0,0,0-5.12-27.54c-1.84-5.74-3.42-10.68-3.51-17.41-.14-10.71,4.39-15.51,8.77-20.16,3-3.21,6.18-6.53,8-12.05a55.068,55.068,0,0,0,2.73-14.69,70,70,0,0,1,4.64-21.59c5.59-15.21,18.59-38.32,48.84-62.05,13.86-10.88,36.27-21.86,55.06-21.86,9.09,0,16.8,2.5,22.88,7.42l1.18,1-.85,1.26c-5.67,8.4-4.26,30.92,3,48.19l.29.69-.32.68c-5.49,11.34-17.14,25.3-41.52,27.41-.85.75-.4,3.63,0,5.94.95,6.1,2.25,14.44-3.47,21.13-3.2,3.72-9.25,3.72-15.11,3.73-9.42,0-15.22.53-16.23,7.74-.86,6.16.58,8.68,2.76,12.48,2.39,4.17,5.36,9.35,6.49,21,.24,2.45.36,4.48.44,6.29a60.638,60.638,0,0,1-.37,10.22c-.49,4.54-.75,7,3.55,20.08l.61,1.82c.88,2.68,1.75,5.31,2.49,7.91,2.85,9.95,4.19,20.81-5.22,32.76-1.95,2.47-3.68,4.49-5.29,6.28-1.35,1.51-2.6,2.84-3.75,4.06-5.39,5.73-8.65,9.2-12,20.4C1030,430.77,1020.4,437.25,1009,437.25Zm-14.24-6.64a34,34,0,0,0,14.23,3.33c10,0,18.31-5.53,20.74-13.76,3.53-12,7.19-15.85,12.72-21.73,1.14-1.21,2.36-2.51,3.69-4,1.57-1.74,3.27-3.72,5.16-6.12,8-10.18,7.65-19.27,4.64-29.8-.73-2.56-1.58-5.14-2.46-7.77l-.61-1.83c-4.52-13.73-4.2-16.64-3.69-21.47a58.458,58.458,0,0,0,.35-9.74c-.07-1.75-.19-3.73-.42-6.1-1.07-10.94-3.84-15.78-6.07-19.67s-4.19-7.3-3.17-14.59c1.49-10.58,11.48-10.59,19.51-10.59,5.34,0,10.39,0,12.59-2.57,4.74-5.53,3.63-12.71,2.73-18.47-.61-3.84-1-6.62.36-8.4a3.63,3.63,0,0,1,2.66-1.35c22.35-1.93,33.25-14.45,38.49-24.89-7.18-17.53-8.55-39.31-3.23-49.29-5.3-3.86-11.9-5.81-19.66-5.81-18,0-39.6,10.62-53,21.15-29.64,23.26-42.34,45.79-47.77,60.59A67.688,67.688,0,0,0,988,258.44a57.42,57.42,0,0,1-2.88,15.48c-2.07,6.21-5.62,10-8.74,13.28-4.29,4.54-8,8.46-7.87,17.83.09,6.23,1.6,11,3.36,16.45a94.591,94.591,0,0,1,5.28,28.43c.25,7.14,3.53,8.68,8.07,10.82a28.822,28.822,0,0,1,6.61,3.92,16.842,16.842,0,0,1,3.18,3.54c4,6,1.37,9.57-1,12.69-1.89,2.51-3.66,4.88-3,9,.74,5,2.62,7.52,4.8,10.38a31,31,0,0,1,6.06,11.6c2.48,9.05-3.65,15.77-7.16,18.75Z" transform="translate(2250 6314)"/>
    <path id="Path_542" data-name="Path 542" d="M1118,211.15a54.769,54.769,0,0,0,10.69,16.94c7.42,7.6,15.63,16.22,13.64,38-3,32.09-17.53,38.33-17.38,62.6,0,1.05,0,2.08.06,3.21.58,10.12,3.46,15.33,6.48,20s6.24,9,7.38,17.27c.77,5.63-1.74,13.81-2.8,23.58a59.264,59.264,0,0,0,.87,19.9c3.8,16.61,33.1,27.71,55.41,6.93,0,0-23.25-2.59-20.4-12.7,4.49-15.84,27-13.81,26.94-27.71a30.853,30.853,0,0,0-.369-4.753c-1.431-9.1-6.531-12.337-6.391-21.007.22-14.12,14.7-23.15,13.67-37-1.34-18.16-23.75-33.62-26-49.76s4.86-24.47,2.69-37.65c-2.91-17.71-16.09-26-27.46-35.3-16-13.11-26.15-42-37.33-35a9.06,9.06,0,0,0-2.57,2.71C1109.21,170.11,1110.26,192.86,1118,211.15Z" transform="translate(2250 6314)" fill="#b96b6b"/>
    <path id="Path_543" data-name="Path 543" d="M1165.08,432.56h0c-14.42,0-27.22-8.4-29.78-19.54a60.571,60.571,0,0,1-.89-20.45c.4-3.75,1-7.32,1.58-10.47.89-5.08,1.66-9.46,1.22-12.71-1-7.14-3.56-11.1-6.28-15.29l-.85-1.31c-3.08-4.81-6.14-10.38-6.74-20.85,0-.93-.06-1.79-.06-2.66v-.62c-.07-12.37,3.63-20.35,7.54-28.79s8.38-18,9.85-34c1.94-21.16-6.08-29.39-13.17-36.65a55.932,55.932,0,0,1-11-17.45c-7.79-18.47-9-42-2.71-51.33a10.469,10.469,0,0,1,3.07-3.19,8.13,8.13,0,0,1,4.37-1.32c6.41,0,12.08,8,18.64,17.22,4.75,6.68,10.13,14.25,16.23,19.24,1.39,1.14,2.81,2.26,4.22,3.38,10.41,8.24,21.17,16.77,23.84,32.94,1.1,6.69-.06,12.1-1.27,17.83s-2.53,11.88-1.42,19.86c1,7.21,6.36,14.41,12,22,6.5,8.74,13.23,17.78,14,27.83.57,7.66-3.24,13.88-6.92,19.89-3.42,5.58-6.64,10.85-6.74,17.24-.07,4.38,1.28,7.21,2.85,10.5a34.493,34.493,0,0,1,3.51,10.24,31.625,31.625,0,0,1,.4,5c0,8-6.49,11.39-12.8,14.67-6,3.1-12.17,6.32-14.2,13.49a3.88,3.88,0,0,0,.54,3.45c3,4.52,14.35,6.7,18.45,7.16l3.58.4-2.64,2.45C1183,430.52,1172.26,432.56,1165.08,432.56Zm-43.9-273.3a4.79,4.79,0,0,0-2.62.82,7.328,7.328,0,0,0-2.08,2.23c-5.67,8.4-4.26,30.92,3,48.19a52.67,52.67,0,0,0,10.36,16.43c7.21,7.39,16.18,16.58,14.09,39.26-1.51,16.52-6.09,26.38-10.13,35.08-3.92,8.45-7.31,15.74-7.24,27.36v.64c0,.8,0,1.62.05,2.48.56,9.68,3.27,14.63,6.22,19.25l.84,1.29c2.81,4.32,5.7,8.78,6.78,16.65.52,3.76-.29,8.38-1.23,13.73-.57,3.25-1.16,6.61-1.55,10.26a57.213,57.213,0,0,0,.83,19.35c2.21,9.68,13.63,17,26.55,17a37.151,37.151,0,0,0,23.45-8.57c-5.1-.93-14-3.2-17.21-8.05a7.17,7.17,0,0,1-1-6.2c2.42-8.55,9.57-12.26,15.86-15.53,6.85-3.55,11-6,11-11.72a30.131,30.131,0,0,0-.36-4.52,31.762,31.762,0,0,0-3.22-9.32c-1.6-3.36-3.27-6.83-3.19-12,.12-7.3,3.74-13.21,7.23-18.92s6.94-11.32,6.45-17.91c-.68-9.1-7.11-17.74-13.34-26.11-5.93-8-11.53-15.49-12.65-23.54-1.19-8.56.16-14.89,1.47-21,1.14-5.41,2.23-10.53,1.23-16.6-2.45-14.91-12.71-23-22.63-30.88-1.43-1.14-2.85-2.27-4.25-3.41-6.45-5.28-12-13-16.84-19.89-5.71-8.11-11.17-15.85-15.87-15.85Z" transform="translate(2250 6314)"/>
  </g>
</svg>
