<svg xmlns="http://www.w3.org/2000/svg" width="282.182" height="342.54" viewBox="0 0 282.182 342.54">
  <g id="Group_762" data-name="Group 762" transform="translate(-2807.568 -6403.25)">
    <path id="Path_544" data-name="Path 544" d="M832.79,347.91s-31.72,30.89-42.16,82.23H837.8C839.47,371.06,832.79,347.91,832.79,347.91Z" transform="translate(2250 6314)" fill="#ffb9b9"/>
    <path id="Path_545" data-name="Path 545" d="M839.41,431.79h-50.8l.4-2c10.42-51.25,42.31-82.78,42.63-83.09l2-1.92.77,2.65c.27,1,6.72,24.07,5.07,82.73Zm-46.74-3.31h43.52c1.18-45.57-2.69-69.42-4.31-77.2C824.82,359,801.66,386.94,792.67,428.48Z" transform="translate(2250 6314)"/>
    <path id="Path_546" data-name="Path 546" d="M559.45,430.14h47.17c-10.44-51.34-42.16-82.23-42.16-82.23S557.78,371.06,559.45,430.14Z" transform="translate(2250 6314)" fill="#ffb9b9"/>
    <path id="Path_547" data-name="Path 547" d="M608.64,431.79h-50.8v-1.61c-1.66-58.66,4.8-81.77,5.07-82.73l.76-2.65,2,1.92c.33.31,32.22,31.84,42.63,83.09Zm-47.58-3.31h43.52c-9-41.54-32.15-69.45-39.2-77.2C563.76,359.06,559.88,382.91,561.06,428.48Z" transform="translate(2250 6314)"/>
    <path id="Path_548" data-name="Path 548" d="M783.31,312.25c-44,33-125.35,33-169.37,0h0s-32.8-5.65-49.49,35.66c0,0,31.72,30.89,42.16,82.23h184c10.44-51.34,42.16-82.23,42.16-82.23C816.1,306.58,783.31,312.25,783.31,312.25Z" transform="translate(2250 6314)" fill="#ff6b3d"/>
    <path id="Path_549" data-name="Path 549" d="M792,431.79H605.27l-.27-1.32c-10.22-50.26-41.38-81.07-41.69-81.38l-.8-.77.42-1c13.47-33.35,37.32-37,46.94-37a28.677,28.677,0,0,1,4.36.28l.71.31c20.69,15.53,51.2,24.43,83.69,24.43s63-8.9,83.68-24.43l.71-.31a29.247,29.247,0,0,1,4.36-.28c9.63,0,33.48,3.6,47,37l.42,1-.8.77c-.32.31-31.49,31.17-41.69,81.38Zm-184-3.31H789.29c9.74-46,36.6-75.76,41.56-81-15.17-36.27-43.31-34.16-46.89-33.7-21.25,15.79-52.32,24.84-85.33,24.84s-64.08-9.05-85.34-24.84c-3.55-.43-31.7-2.6-46.88,33.7C571.37,352.72,598.23,382.52,608,428.48Z" transform="translate(2250 6314)"/>
    <path id="Path_550" data-name="Path 550" d="M783.31,312.25s-36.79-1.6-45.53-21c-4.9-10.89-6.72-27.37-7.32-41.15-8.79,10.75-19.82,17.22-31.83,17.22s-23-6.47-31.84-17.22c-.6,13.78-2.42,30.26-7.32,41.15-8.73,19.4-45.49,21-45.52,21h0C658,345.27,739.29,345.27,783.31,312.25Z" transform="translate(2250 6314)" fill="#ffb9b9"/>
    <path id="Path_551" data-name="Path 551" d="M698.63,338.67c-33.19,0-64.42-9.15-85.68-25.09l-3.69-2.77,4.61-.21c.36,0,35.91-1.86,44.09-20,3.92-8.71,6.4-22.73,7.18-40.54l.19-4.34,2.74,3.36c8.88,10.87,19.45,16.61,30.56,16.61s21.67-5.74,30.54-16.61l2.75-3.36.19,4.34c.78,17.81,3.27,31.83,7.18,40.54,8.22,18.27,43.73,20,44.09,20l4.62.2-3.7,2.78C763,329.52,731.81,338.67,698.63,338.67Zm-80.06-25.15c20.55,13.92,49.42,21.84,80.06,21.84s59.49-7.91,80-21.83c-10.36-1.14-35.14-5.5-42.39-21.61-3.83-8.53-6.27-21.18-7.25-37.66-9,9.64-19.39,14.7-30.39,14.7s-21.44-5.06-30.4-14.7c-1,16.48-3.42,29.13-7.25,37.66-7.18,16.08-32.02,20.44-42.38,21.6Z" transform="translate(2250 6314)"/>
    <path id="Path_552" data-name="Path 552" d="M698.63,267.31c12,0,23-6.47,31.83-17.22,9.81-12,16.77-29.39,19.08-49.35.54-7,.37-19.1-3.8-36-5-20.23-13.23-26.3-16.43-36.06-16.2,15.79-59.78,34.3-61.27,64.94,0,0-10.8-1.85-18.21-19.44a48.723,48.723,0,0,0-2.93,13.67c.31,25.27,8,47.67,19.89,62.19C675.58,260.84,686.61,267.31,698.63,267.31Z" transform="translate(2250 6314)" fill="#ffb9b9"/>
    <path id="Path_553" data-name="Path 553" d="M698.63,269c-12.14,0-23.59-6.16-33.12-17.82-12.57-15.38-20-38.42-20.27-63.22a50.463,50.463,0,0,1,3.07-14.33l1.52-3.62,1.53,3.62c5.2,12.36,12,16.54,15.2,17.87,2.4-21.69,24.91-37.26,43.1-49.85,7.21-5,14-9.7,18.49-14.07l1.9-1.85.83,2.52a49.221,49.221,0,0,0,5.21,10.16,83.369,83.369,0,0,1,11.25,26c4.2,16.91,4.41,29.17,3.85,36.48-2.3,19.9-9.2,37.73-19.45,50.27C722.21,262.8,710.76,269,698.63,269Zm-48.51-90.19a52.873,52.873,0,0,0-1.57,9.26c.3,23.91,7.42,46.21,19.52,61,8.88,10.87,19.45,16.61,30.56,16.61s21.67-5.74,30.54-16.61c9.86-12,16.51-29.27,18.72-48.48.54-7,.32-18.89-3.76-35.37-3-12.3-7.2-19.1-10.86-25.09a63.772,63.772,0,0,1-4.64-8.48,200.431,200.431,0,0,1-17.08,12.71c-18.19,12.58-40.83,28.25-41.86,49.42l-.09,1.87-1.84-.32c-.44-.1-10.12-1.93-17.64-16.56Z" transform="translate(2250 6314)"/>
    <path id="Path_554" data-name="Path 554" d="M668,193.67c1.49-30.64,45.07-49.15,61.27-64.94a29.718,29.718,0,0,1-1.2-12.13,19.44,19.44,0,0,1,3.75-10.47c-10.44-17.86-42.53-18.55-64-9.55C639,108.7,626,137.87,628.35,165c1.95,22.75,19.94,40.7,19.94,40.7a55.81,55.81,0,0,1-1.39-17.81,48.721,48.721,0,0,1,2.93-13.67C657.24,191.82,668,193.67,668,193.67Z" transform="translate(2250 6314)" fill="#b96b6b"/>
    <path id="Path_555" data-name="Path 555" d="M651.31,211.05l-4.19-4.17c-.75-.75-18.44-18.64-20.42-41.73-2.18-25.5,9.51-57.06,40.56-70.1a78,78,0,0,1,29.55-5.8c17.22,0,30.52,5.85,36.47,16l.57,1-.68.89a17.87,17.87,0,0,0-3.41,9.59,28.23,28.23,0,0,0,1.12,11.47l.32,1-.74.73c-4.67,4.55-11.59,9.34-18.91,14.41-18.19,12.58-40.83,28.25-41.86,49.42l-.09,1.87-1.84-.32c-.44-.07-10.12-1.9-17.64-16.53a52.873,52.873,0,0,0-1.57,9.26,53.771,53.771,0,0,0,1.35,17.28Zm45.5-118.48a74.5,74.5,0,0,0-28.27,5.54C639,110.5,627.92,140.57,630,164.87c1.31,15.34,10.25,28.56,15.55,35.17a57.2,57.2,0,0,1-.3-12.28,50,50,0,0,1,3.06-14.17l1.52-3.62,1.53,3.62c5.2,12.36,12,16.54,15.2,17.87,2.4-21.69,24.91-37.26,43.1-49.85,6.83-4.73,13.3-9.21,17.76-13.37a32.081,32.081,0,0,1-1-11.78,21.71,21.71,0,0,1,3.41-10.4C724.26,97.47,712.29,92.57,696.81,92.57Z" transform="translate(2250 6314)"/>
    <path id="Path_556" data-name="Path 556" d="M729.31,128.73c3.2,9.76,11.42,15.83,16.43,36.06,4.17,16.85,4.34,28.92,3.8,36a42.673,42.673,0,0,1-1,7.23s20.15-18.63,23-38.15c2.18-14.89,3.58-43.89-11.51-61.11-8.25-9.41-21.61-11-28.14-2.58a19.44,19.44,0,0,0-3.75,10.47,29.721,29.721,0,0,0,1.17,12.08Z" transform="translate(2250 6314)" fill="#b96b6b"/>
    <path id="Path_557" data-name="Path 557" d="M745.37,213.1l1.52-5.58a39.7,39.7,0,0,0,1-6.9c.54-7.07.32-19-3.76-35.43-3-12.3-7.19-19.1-10.86-25.09a52.741,52.741,0,0,1-5.54-10.85,31.511,31.511,0,0,1-1.27-12.79,21.191,21.191,0,0,1,4.09-11.34A16,16,0,0,1,743.49,99c6.38,0,13,3.23,17.75,8.63,16.29,18.59,13.75,49.86,11.91,62.44-2.92,19.87-22.69,38.34-23.54,39.12Zm-1.88-110.8a12.69,12.69,0,0,0-10.32,4.85,17.87,17.87,0,0,0-3.41,9.59,28.229,28.229,0,0,0,1.12,11.47,49.221,49.221,0,0,0,5.21,10.16,83.369,83.369,0,0,1,11.25,26c4.2,16.91,4.41,29.17,3.85,36.48-.06.79-.13,1.52-.2,2.19,5.83-6.3,16.87-19.78,18.88-33.48,1.78-12.13,4.26-42.23-11.12-59.78C754.63,105.11,748.92,102.3,743.49,102.3Z" transform="translate(2250 6314)"/>
  </g>
</svg>
