<svg xmlns="http://www.w3.org/2000/svg" width="326.59" height="353.64" viewBox="0 0 326.59 353.64">
  <g id="Group_763" data-name="Group 763" transform="translate(-3214.41 -6855.021)">
    <path id="Path_574" data-name="Path 574" d="M1189.8,760.77l4.81,3.67s33,7.85,33.37,62.88c0,0-10.21,8.38-23.44,5.87,0,0,12.32,9.12,27.59,6.38,0,0-30.32,36.74-30.32,48.25h87.53V833C1289.34,811.5,1243.79,777.62,1189.8,760.77Z" transform="translate(2250 6314)" fill="#ff6b3d"/>
    <path id="Path_575" data-name="Path 575" d="M1291,889.47h-90.85v-1.65c0-10.13,20.46-36.57,28.14-46.13h-2a41.519,41.519,0,0,1-22.77-7.22l-5.81-4.31,7.1,1.35a24.585,24.585,0,0,0,4.69.44,30.24,30.24,0,0,0,16.78-5.5c-.71-52.36-31.78-60.38-32.1-60.45l-.62-.3-12.24-9.36,8.93,2.8C1243.94,775.93,1291,810.4,1291,833Zm-87.35-3.31h84V833c0-18.66-37.43-47.52-82.12-64.92,10.1,7.14,23.8,23.42,24.07,59.27v.79l-.61.5a33.481,33.481,0,0,1-17.33,6.63,37,37,0,0,0,14.63,3.2,30.6,30.6,0,0,0,5.51-.49l4.44-.79-2.87,3.48C1225.54,850.16,1205.81,875.81,1203.65,886.16Z" transform="translate(2250 6314)"/>
    <path id="Path_576" data-name="Path 576" d="M1050.31,833.19c-13.23,2.51-23.44-5.87-23.44-5.87.4-55,33.37-62.88,33.37-62.88l1.83,3.1-1.27-3.1,10.88-4.33,2.92-2c-57.84,15.71-108.54,52.18-108.54,74.82v54.86h87c0-11.51-30.33-48.25-30.33-48.25C1038,842.31,1050.31,833.19,1050.31,833.19Z" transform="translate(2250 6314)" fill="#ff6b3d"/>
    <path id="Path_577" data-name="Path 577" d="M1054.7,889.47H964.41V833c0-24.39,52.31-60.81,109.76-76.42l9.69-2.63-11.26,7.57-9.63,3.87.63,1.56-3,1.47-1.17-2c-5.76,2-30.3,13-30.94,60.11a30.449,30.449,0,0,0,16.78,5.5,25.435,25.435,0,0,0,4.69-.44l7.1-1.35-5.81,4.31a41.52,41.52,0,0,1-22.77,7.22h-2c7.68,9.56,28.14,36,28.14,46.13Zm-87-3.31h83.48c-2.16-10.35-21.89-36-29.77-45.53l-2.87-3.48,4.44.79a30.715,30.715,0,0,0,5.52.49,36.87,36.87,0,0,0,14.62-3.2,33.42,33.42,0,0,1-17.32-6.63l-.61-.5v-.79c.26-35.32,13.57-51.65,23.63-58.94-47.26,18.36-81.12,47.27-81.12,64.59Z" transform="translate(2250 6314)"/>
    <path id="Path_578" data-name="Path 578" d="M1110.66,887.82h.38l-2.59-6.35Z" transform="translate(2250 6314)" fill="#4d3737"/>
    <path id="Path_579" data-name="Path 579" d="M1113.5,889.47h-4.02l-2.59-7.46,3.09-1.17Z" transform="translate(2250 6314)"/>
    <path id="Path_580" data-name="Path 580" d="M1204.54,833.19c13.23,2.51,23.44-5.87,23.44-5.87-.41-55-33.37-62.88-33.37-62.88l-45.5,123.38h52.7c0-11.51,30.32-48.25,30.32-48.25C1216.86,842.31,1204.54,833.19,1204.54,833.19Z" transform="translate(2250 6314)" fill="#ff6b3d"/>
    <path id="Path_581" data-name="Path 581" d="M1203.46,889.47h-56.73l46.83-127,1.43.35c1.4.33,34.23,8.79,34.65,64.48v.79l-.61.5a33.429,33.429,0,0,1-17.33,6.63,37,37,0,0,0,14.63,3.2,30.605,30.605,0,0,0,5.51-.49l4.44-.79-2.87,3.48c-8.33,10.09-30,38.24-30,47.19Zm-52-3.31h48.82c1.88-11.1,20.7-35.39,28-44.47h-2a41.519,41.519,0,0,1-22.77-7.22l-5.81-4.31,7.1,1.35a25.428,25.428,0,0,0,4.69.44,30.449,30.449,0,0,0,16.78-5.5c-.63-46.44-24.53-57.85-30.7-60Z" transform="translate(2250 6314)"/>
    <path id="Path_582" data-name="Path 582" d="M1062.07,767.54l-1.83-3.1s-33,7.85-33.37,62.88c0,0,10.21,8.38,23.44,5.87,0,0-12.32,9.12-27.6,6.38,0,0,30.33,36.74,30.33,48.25h57.62l-2.21-6.35Z" transform="translate(2250 6314)" fill="#ff6b3d"/>
    <path id="Path_583" data-name="Path 583" d="M1113,889.47h-61.59v-1.65c0-9-21.62-37.1-30-47.19l-2.87-3.48,4.44.79a30.712,30.712,0,0,0,5.52.49,36.93,36.93,0,0,0,14.64-3.2,33.389,33.389,0,0,1-17.34-6.63l-.61-.5v-.79c.41-55.69,33.25-64.15,34.65-64.48l1.19-.29,2.44,4.16L1110,880.84Zm-58.43-3.31h53.78l-1.44-4.15-46.36-113.85-1-1.77c-5.75,2-30.31,13-31,60.11a30.449,30.449,0,0,0,16.78,5.5,25.435,25.435,0,0,0,4.69-.44l7.11-1.35-5.82,4.31a41.52,41.52,0,0,1-22.77,7.22h-2c7.31,9.03,26.13,33.32,28.01,44.42Z" transform="translate(2250 6314)"/>
    <path id="Path_584" data-name="Path 584" d="M1189.81,760.76l-.87-.65-34.1,64.87-7.54-10.45-.24,1.51h-7.47l9.52,71.78,45.5-123.38Z" transform="translate(2250 6314)" fill="#cbcdda"/>
    <path id="Path_585" data-name="Path 585" d="M1148.35,894.66l-10.65-80.27,8-.12.64-3.94,8.31,11.52,33.77-64.25,8.19,6.26Zm-6.87-77,8.39,63.27,42.76-116-3.14-2.4-34.43,65.51-7.51-10.42Z" transform="translate(2250 6314)"/>
    <path id="Path_586" data-name="Path 586" d="M1112.23,816.04l-6.45,8.94-34.1-64.87-10.88,4.33,1.27,3.1,46.38,113.93,2.59,6.35,9.52-71.78Z" transform="translate(2250 6314)" fill="#cbcdda"/>
    <path id="Path_587" data-name="Path 587" d="M1111.86,894.22l-53.22-130.7,13.81-5.5L1106,821.85l5.38-7.46h11.07ZM1063,765.36l47.25,116.06,8.45-63.72h-5.6l-7.52,10.42L1070.9,762.2Z" transform="translate(2250 6314)"/>
    <path id="Path_588" data-name="Path 588" d="M1130.1,790.74l.21.18.21-.18Z" transform="translate(2250 6314)" fill="#f7dd91"/>
    <path id="Path_589" data-name="Path 589" d="M1130.51,792.96l-1.52-1-3.11-2.83,8.63-.09Z" transform="translate(2250 6314)"/>
    <path id="Path_590" data-name="Path 590" d="M1112.23,816.04h34.83l.24-1.51-16.99-23.55Z" transform="translate(2250 6314)" fill="#ff6b3d"/>
    <path id="Path_591" data-name="Path 591" d="M1148.46,817.7H1109l21.32-29.55,18.73,26Zm-33-3.31h29.7l-14.85-20.58Z" transform="translate(2250 6314)"/>
    <path id="Path_592" data-name="Path 592" d="M1130.1,790.74h.41l41.14-37.44,2.19-3.13s3.79-49,5-65.63a4.847,4.847,0,0,1-.53-.21c-9.86,29.33-29.21,52.47-51.47,52.47-18.37,0-34.76-16.83-45.46-39.74l4.54,53.11-.1.44.11-.08Z" transform="translate(2250 6314)" fill="#ffb9b9"/>
    <path id="Path_593" data-name="Path 593" d="M1129.88,792.4l-.88-.4-43.22-39.33-2.4,1.6.84-4h0l-5.32-62.33,3.94,8.43c11.34,24.3,27.78,38.79,44,38.79,19.83,0,39.42-20.15,49.91-51.34l.62-1.86,2.88,1.37.24,1.35c-1.21,16.58-5,65.64-5,65.64v.45l-2.45,3.5-41.85,38.13Zm-42.33-42.63,42.76,38.92,40.23-36.62,1.69-2.47c.32-4.13,2.8-36.29,4.26-55.75-11.53,27.39-30.4,44.6-49.65,44.6-15.94,0-31.36-11.94-43.09-33.09Z" transform="translate(2250 6314)"/>
    <path id="Path_594" data-name="Path 594" d="M1130.52,790.74l-.21.18.02.03-.02.03,16.99,23.55,7.54,10.45,34.1-64.87-14.25-9.58-3.04,2.77Z" transform="translate(2250 6314)" fill="#cbcdda"/>
    <path id="Path_595" data-name="Path 595" d="M1155.06,828.12,1129,792l-1.18-1,1.41-1.3,45.32-41.25,16.57,11.12Zm-22.57-36.94,22.13,30.67,32.17-61.19-12-8Z" transform="translate(2250 6314)"/>
    <path id="Path_596" data-name="Path 596" d="M1105.78,824.98l6.45-8.94,18.08-25.06.02-.03-.02-.03-.21-.18-44.17-40.21-.11.08-11.22,7.53-2.92,1.97Z" transform="translate(2250 6314)" fill="#cbcdda"/>
    <path id="Path_597" data-name="Path 597" d="M1105.55,828.12l-36-68.55L1086,748.51l1.06.8,45.29,41.22-.67,1.41Zm-31.72-67.47,32.17,61.2,22.13-30.68-42.35-38.54Z" transform="translate(2250 6314)"/>
    <path id="Path_598" data-name="Path 598" d="M1178.31,684.33a4.883,4.883,0,0,0,.53.21,5.461,5.461,0,0,0,1,.39c5.73,1,12.06-8,14.13-20,2-11.53-.68-21.61-5.94-23.32-1.21,5.26-2.42,9.62-3.3,12.62a134.847,134.847,0,0,1-6.42,30.1Z" transform="translate(2250 6314)" fill="#eaa96c"/>
    <path id="Path_599" data-name="Path 599" d="M1180.67,686.65h0a7.19,7.19,0,0,1-1.14-.09,3.837,3.837,0,0,1-1.1-.39l-.91-.39-1.22-.66.45-1.32a132,132,0,0,0,6.3-29.76c1.25-4.34,2.36-8.56,3.34-12.84l.41-1.76,1.72.56c6.14,2,9.18,12.83,7.06,25.18S1187.16,686.65,1180.67,686.65Zm-.28-3.32h.28c4,0,9.65-7.15,11.64-18.72,1.72-10-.19-17.67-3.21-20.48-.86,3.59-1.81,7.12-2.81,10.53a133.523,133.523,0,0,1-5.9,28.67Z" transform="translate(2250 6314)"/>
    <path id="Path_600" data-name="Path 600" d="M1066.8,641.33a5,5,0,0,0-.86,0c-5.73,1-8.7,11.55-6.62,23.6s8.41,21,14.14,20a5.559,5.559,0,0,0,2.53-1.29,142.918,142.918,0,0,1-6.94-32C1068.37,648.84,1067.58,645.34,1066.8,641.33Z" transform="translate(2250 6314)" fill="#eaa96c"/>
    <path id="Path_601" data-name="Path 601" d="M1072.59,686.65h0c-6.49,0-12.75-9-14.9-21.47-2.27-13.14,1.24-24.34,8-25.51H1068l.41,1.36c.77,4,1.55,7.45,2.23,10.22a141.652,141.652,0,0,0,6.9,31.86l.37,1.1-.89.73a7,7,0,0,1-3.3,1.63A7.334,7.334,0,0,1,1072.59,686.65Zm-7.1-43.46c-3.8,1.66-6.45,10.32-4.53,21.43,2.08,12.13,8,19.45,12.22,18.67a2.64,2.64,0,0,0,.85-.3,143.606,143.606,0,0,1-6.63-31.2C1066.84,649.54,1066.17,646.58,1065.49,643.19Z" transform="translate(2250 6314)"/>
    <path id="Path_602" data-name="Path 602" d="M1126.84,736.8c22.26,0,41.61-23.14,51.47-52.47a134.848,134.848,0,0,0,6.39-30.13c-.8,2.71-1.34,4.3-1.34,4.3s2.22-53.62-16.59-69.54c-13.69,1.1-19,3.33-35.73,3.33-19.61,0-44-10.13-50.86,13.3-6.79,23.1-1.83,44.34-9.34,52.91,0,0-.76-2.62-1.79-6.87a142.918,142.918,0,0,0,6.94,32,134.161,134.161,0,0,0,5.39,13.42C1092.08,720,1108.47,736.8,1126.84,736.8Z" transform="translate(2250 6314)" fill="#ffb9b9"/>
    <path id="Path_603" data-name="Path 603" d="M1126.84,738.45c-17.76,0-34.88-14.83-47-40.69a133.636,133.636,0,0,1-5.45-13.59,143.441,143.441,0,0,1-7-32.38l3.26-.55c.28,1.2.55,2.27.79,3.18,2-4.42,2.32-10.94,2.78-18.77.53-9.15,1.13-19.52,4.36-30.53,4.35-14.77,15.28-16.66,24.32-16.66a127.559,127.559,0,0,1,14.12,1.09,128.376,128.376,0,0,0,14,1.08,137.31,137.31,0,0,0,22.54-1.77c3.86-.55,7.85-1.13,13.06-1.55l.67-.06.53.44c16.17,13.7,17.35,53,17.27,66.42l1.23.24a134.734,134.734,0,0,1-6.46,30.51C1168.94,717.42,1148.12,738.45,1126.84,738.45Zm-55-78.51a141.561,141.561,0,0,0,5.77,23.16,130.712,130.712,0,0,0,5.32,13.25c11.34,24.3,27.78,38.79,44,38.79,19.84,0,39.42-20.15,49.91-51.34a132.821,132.821,0,0,0,4.65-17.92l.3-7.45c0-.52,1.93-52-15.49-67.77-4.77.41-8.53,1-12.16,1.48a139.835,139.835,0,0,1-23,1.8,128.7,128.7,0,0,1-14.39-1.11,127.53,127.53,0,0,0-13.74-1.07c-11.87,0-18.19,4.28-21.14,14.29-3.14,10.65-3.72,20.82-4.24,29.79-.6,10.48-1.08,18.77-5.44,23.75Z" transform="translate(2250 6314)"/>
    <path id="Path_604" data-name="Path 604" d="M1070.84,658.5c7.51-8.57,2.55-29.81,9.34-52.91,6.9-23.43,31.25-13.3,50.86-13.3,16.73,0,22-2.23,35.73-3.33-.33-.28-.66-.58-1-.84,0,0,8-7.74,15.31-7.65-4.93-12.74-18.49-36.62-51.28-37.72-38.4-1.29-62,22.4-65.9,55.56-1.68,14.32.54,30.89,2.9,43,.78,4,1.57,7.51,2.25,10.3C1070.08,655.88,1070.84,658.5,1070.84,658.5Z" transform="translate(2250 6314)" fill="#b96b6b"/>
    <path id="Path_605" data-name="Path 605" d="M1070.1,661.86l-.85-2.89s-.77-2.65-1.82-7c-.68-2.81-1.47-6.33-2.25-10.37-2.29-11.73-4.65-28.8-2.92-43.53,4.23-36.19,30.2-58.24,67.6-57,33.28,1.12,47.34,24.78,52.76,38.79l.88,2.28h-2.44c-4.89,0-10.28,3.92-12.76,6l2.26,1.95-3.66.56c-5.1.41-9,1-12.85,1.53a139.828,139.828,0,0,1-23,1.8,128.7,128.7,0,0,1-14.39-1.11,127.51,127.51,0,0,0-13.74-1.07c-11.87,0-18.19,4.28-21.14,14.29-3.14,10.65-3.72,20.82-4.24,29.79-.6,10.48-1.08,18.77-5.44,23.75Zm56.74-117.51c-33.9,0-57.39,20.75-61.3,54.15-1.67,14.31.65,31,2.89,42.52.77,4,1.55,7.45,2.23,10.22.28,1.2.55,2.27.79,3.18,2-4.42,2.32-10.94,2.78-18.77.53-9.15,1.13-19.52,4.36-30.53,4.35-14.77,15.28-16.66,24.32-16.66a127.547,127.547,0,0,1,14.12,1.09,128.351,128.351,0,0,0,14,1.08,137.074,137.074,0,0,0,22.53-1.77c3.18-.46,6.45-.93,10.41-1.32l.64-.61c.31-.3,7-6.69,14.08-7.91-5.66-13.38-19.14-33.62-49-34.62C1128.77,544.37,1127.8,544.35,1126.84,544.35Z" transform="translate(2250 6314)"/>
    <path id="Path_606" data-name="Path 606" d="M1165.77,588.12c.34.26.67.56,1,.84,18.81,15.92,16.59,69.54,16.59,69.54s.54-1.59,1.34-4.3c.88-3,2.09-7.36,3.3-12.62,2.32-10,4.62-23.17,4.62-35.86,0-19.73-5.51-25.17-11.54-25.25C1173.8,580.38,1165.77,588.12,1165.77,588.12Z" transform="translate(2250 6314)" fill="#b96b6b"/>
    <path id="Path_607" data-name="Path 607" d="M1181.23,670l.47-11.53c0-.53,2-53-16-68.21-.5-.43-.71-.61-.93-.78l-1.56-1.17,1.41-1.34c.34-.33,8.51-8.11,16.33-8.11,8.89.11,13.33,9.16,13.33,26.9,0,13.29-2.54,27-4.66,36.23-1,4.35-2.12,8.62-3.33,12.72-.82,2.75-1.36,4.36-1.36,4.36Zm-12.94-81.86c13.42,12.3,16.24,42.08,16.72,58.75.49-1.86,1-3.75,1.38-5.65,2.09-9,4.57-22.5,4.57-35.48,0-10.7-1.71-23.48-9.9-23.59-4.91-.04-10.29,3.88-12.77,5.93Z" transform="translate(2250 6314)"/>
    <path id="Path_608" data-name="Path 608" d="M1130.07,816.04h-9.51l-9.52,71.78h38.07l-9.52-71.78Z" transform="translate(2250 6314)" fill="#ff6b3d"/>
    <path id="Path_609" data-name="Path 609" d="M1151,889.47h-41.85l10-75.08H1141Zm-38.07-3.31h34.29l-9.08-68.46H1122Z" transform="translate(2250 6314)"/>
  </g>
</svg>
