<svg xmlns="http://www.w3.org/2000/svg" width="493.6" height="512" viewBox="0 0 493.6 512">
  <g id="muscle" transform="translate(0 0)">
    <path id="Path_306" data-name="Path 306" d="M398.328,167.715a8.511,8.511,0,0,0,12.035,0l59.289-59.289A43.573,43.573,0,0,0,408.031,46.8l-3.687,3.68-3.68-3.68a43.571,43.571,0,1,0-61.621,61.617ZM351.078,58.84a26.589,26.589,0,0,1,37.551,0l9.7,9.7a8.511,8.511,0,0,0,12.035,0l9.7-9.7a26.552,26.552,0,0,1,37.551,37.551l-53.273,53.27-53.266-53.27a26.542,26.542,0,0,1,0-37.551Zm0,0" fill="#ff6b3d"/>
    <path id="Path_307" data-name="Path 307" d="M484.148,493.652c-72.746,8.07-130.438-24.141-131.016-24.465a8.483,8.483,0,0,0-6.453-.82c-.918.246-92.422,24.773-166.121,8.414C134.613,466.566,91.277,434.2,59.632,410.574c-4.25-3.172-8.277-6.184-12.059-8.945-5.164-3.777-13.375-6.918-20.613-9.691-3.25-1.242-7.7-2.949-8.66-3.547a3.335,3.335,0,0,1-1.281-2.691V365.972c.41-15.609,65.855-255.793,76-286.348a6.581,6.581,0,0,1,1.945-1.406L224.484,19.062l41.871,54.512a7.5,7.5,0,0,1-.457,9.379l-41.375,46.383a7.372,7.372,0,0,1-10.094,1.008L197.7,114.917A8.57,8.57,0,0,0,190.335,113a8.927,8.927,0,0,0-6.176,4.711c-1.4,2.754-14.066,6.129-26.988,6.227l-4.211-.426a8.414,8.414,0,0,0-8.3,4.332,8.511,8.511,0,0,0,.7,9.34c3.594,4.645,6.395,8.375,7.98,10.516l8.281,140.77c-5.133,19.992-9.836,25.672-11,26.809a8.511,8.511,0,0,0,2.559,16.629c9.652,0,17.855-12.684,24.441-37.445,67.691-50.648,126.766-2.848,131.4,1.086,21.5,21.578,22.832,35.91,22.875,36.547a8.513,8.513,0,0,0,17.023-.187c0-1.957-.711-18.75-22.738-43.012,20.773-25.539,44.426-40.25,70.477-43.453,44.914-5.531,82.668,24.672,83.047,24.973a8.51,8.51,0,0,0,10.77-13.18c-1.758-1.434-43.551-35.055-95.723-28.707-30.5,3.7-57.871,20.191-81.469,49.059-19.152-13.023-74.066-42.5-135.48-3.949l-7.617-129.457a8.456,8.456,0,0,0-1.238-3.945c7.617-.9,16.688-2.891,23.266-7.219l10.965,10.105a24.4,24.4,0,0,0,34.039-2.445l41.375-46.387a24.668,24.668,0,0,0,1.383-30.91L233.851,3.324A8.509,8.509,0,0,0,223.566.769L88,62.691c-1.418.621-8.609,4.1-10.973,11.211C72.207,88.371,0,345.882,0,365.945V385.7a20.311,20.311,0,0,0,7.8,16.09c2.48,1.941,6.187,3.41,13.074,6.043,5.625,2.156,13.324,5.1,16.648,7.531,3.742,2.734,7.719,5.707,11.922,8.848,32.879,24.555,77.906,58.18,127.422,69.184,70.488,15.664,153.234-3.273,170.969-7.742C359.684,491.777,403.137,512,460.024,512a234.216,234.216,0,0,0,26-1.434,8.509,8.509,0,1,0-1.879-16.914Zm0,0" fill="#ff6b3d"/>
    <path id="Path_308" data-name="Path 308" d="M442.484,390.535a8.512,8.512,0,0,0-16.973.941c0,5.684,4.2,24.93,58.176,33.922a8.647,8.647,0,0,0,1.406.117,8.511,8.511,0,0,0,1.391-16.906c-37.746-6.289-43.5-16.941-44-18.074Zm0,0" fill="#ff6b3d"/>
    <path id="Path_309" data-name="Path 309" d="M279.059,434.215C167.594,458.09,119.895,381.824,117.922,378.57a8.512,8.512,0,0,0-14.586,8.777c.563.934,14.105,23.164,43.063,42.1,19.953,13.043,50.379,26.332,91.531,26.332a213.119,213.119,0,0,0,44.691-4.918,8.513,8.513,0,0,0-3.563-16.648Zm0,0" fill="#ff6b3d"/>
  </g>
</svg>
