<svg xmlns="http://www.w3.org/2000/svg" width="92.514" height="92.515" viewBox="0 0 92.514 92.515">
  <g id="diet" transform="translate(-0.004)">
    <path id="Path_237" data-name="Path 237" d="M95.412,71.357h1.542a1.542,1.542,0,0,0,0-3.084H95.412a1.542,1.542,0,0,0,0,3.084Zm0,0" transform="translate(-76.906 -55.937)" fill="#ff6b3d"/>
    <path id="Path_238" data-name="Path 238" d="M138.077,71.357h20.045a1.542,1.542,0,0,0,0-3.084H138.077a1.542,1.542,0,1,0,0,3.084Zm0,0" transform="translate(-111.861 -55.937)" fill="#ff6b3d"/>
    <path id="Path_239" data-name="Path 239" d="M78.522,49.342H75.139a7.2,7.2,0,0,0-2.071.308,1.425,1.425,0,0,0-.154.044,7.142,7.142,0,0,0-2.239,1.266c.335-3.547,2.091-8.7,8.755-12.631a1.542,1.542,0,0,0-1.567-2.655,20.308,20.308,0,0,0-9.134,10.235c-.082-.267-.169-.527-.265-.771a12.89,12.89,0,0,0-3.7-5.242V13.879a4.626,4.626,0,0,0-4.625-4.626H53.687a4.627,4.627,0,0,0-4.342-3.084h-8.26a9.22,9.22,0,0,0-17.4,0h-8.26a4.626,4.626,0,0,0-4.342,3.084H4.63A4.626,4.626,0,0,0,0,13.879V87.889A4.626,4.626,0,0,0,4.63,92.515H60.138a4.514,4.514,0,0,0,2.072-.5,18.938,18.938,0,0,0,4.3.5h5.764c11.163,0,20.247-9.682,20.247-21.587V64.252c0-8.218-6.278-14.91-14-14.91Zm-12.941-3.1a20.709,20.709,0,0,1,.862,3.716c-.154-.066-.292-.155-.447-.205a7,7,0,0,0-2.365-.411H60.257c-.423,0-.839.029-1.252.068-.038-.011-.066-.035-.107-.043-5.1-1.022-5.033-6.976-4.84-9.107a25.053,25.053,0,0,1,2.964-.165h.032a9.1,9.1,0,0,1,8.526,6.154ZM49.915,83.264H9.255V18.5h1.826a4.625,4.625,0,0,0,4.342,3.084H49.345A4.626,4.626,0,0,0,53.687,18.5h1.825V37.03c-3.982.142-4.246,1.251-4.388,1.885-.543,3.172-.267,8.789,3.4,11.754a14.983,14.983,0,0,0-8.267,13.584v6.676a22.431,22.431,0,0,0,3.654,12.336ZM61.68,13.879V38.007a12.337,12.337,0,0,0-3.084-.845V18.5a3.084,3.084,0,0,0-3.084-3.084H53.971V12.336h6.167a1.542,1.542,0,0,1,1.542,1.542ZM15.423,9.253h9.406a1.268,1.268,0,0,0,.154-.032,1.487,1.487,0,0,0,.284-.057,1.453,1.453,0,0,0,.282-.117,1.483,1.483,0,0,0,.6-.6,1.378,1.378,0,0,0,.119-.282,1.286,1.286,0,0,0,.061-.143,6.168,6.168,0,0,1,12.085,0,1.548,1.548,0,0,0,.065.164,1.784,1.784,0,0,0,.087.22,1.485,1.485,0,0,0,.188.279,1.455,1.455,0,0,0,.145.164,1.525,1.525,0,0,0,.3.2,1.207,1.207,0,0,0,.737.208h9.406a1.542,1.542,0,0,1,1.542,1.542v6.167A1.542,1.542,0,0,1,49.345,18.5H15.423a1.542,1.542,0,0,1-1.542-1.542V10.795a1.542,1.542,0,0,1,1.542-1.542ZM4.63,89.431a1.542,1.542,0,0,1-1.542-1.542V13.878A1.542,1.542,0,0,1,4.63,12.336H10.8V15.42H9.255A3.084,3.084,0,0,0,6.172,18.5v64.76a3.084,3.084,0,0,0,3.084,3.084H52.363a20.626,20.626,0,0,0,3.766,3.084Zm84.8-18.5c0,10.2-7.7,18.5-17.163,18.5H66.508c-9.462,0-17.163-8.3-17.163-18.5V64.252c0-6.518,4.9-11.826,10.912-11.826h3.4a3.947,3.947,0,0,1,1.294.232,4.614,4.614,0,0,1,2.9,4.408v1.528a1.542,1.542,0,1,0,3.084,0V57.061a4.616,4.616,0,0,1,2.878-4.415l.074-.021a4.207,4.207,0,0,1,1.233-.2h3.4c6.018,0,10.913,5.311,10.913,11.829Zm0,0" fill="#ff6b3d"/>
    <path id="Path_240" data-name="Path 240" d="M295.817,307.274c-.233.076-5.68,1.976-5.68,9.172a1.542,1.542,0,1,0,3.084,0c0-4.893,3.411-6.189,3.585-6.251a1.542,1.542,0,1,0-.988-2.921Zm0,0" transform="translate(-237.708 -251.685)" fill="#ff6b3d"/>
    <path id="Path_241" data-name="Path 241" d="M75.98,145.074H71.354a3.084,3.084,0,0,0-3.084,3.084v4.626a3.084,3.084,0,0,0,3.084,3.084H75.98a3.084,3.084,0,0,0,3.084-3.084v-4.626A3.084,3.084,0,0,0,75.98,145.074Zm-4.626,7.71v-4.626H75.98v4.626Zm0,0" transform="translate(-55.931 -118.861)" fill="#ff6b3d"/>
    <path id="Path_242" data-name="Path 242" d="M75.98,221.875H71.354a3.084,3.084,0,0,0-3.084,3.084v4.625a3.084,3.084,0,0,0,3.084,3.084H75.98a3.084,3.084,0,0,0,3.084-3.084v-4.625A3.084,3.084,0,0,0,75.98,221.875Zm-4.626,7.709v-4.625H75.98v4.625Zm0,0" transform="translate(-55.931 -181.784)" fill="#ff6b3d"/>
    <path id="Path_243" data-name="Path 243" d="M75.98,298.676H71.354a3.084,3.084,0,0,0-3.084,3.084v4.625a3.084,3.084,0,0,0,3.084,3.084H75.98a3.084,3.084,0,0,0,3.084-3.084V301.76A3.084,3.084,0,0,0,75.98,298.676Zm-4.626,7.709V301.76H75.98v4.625Zm0,0" transform="translate(-55.931 -244.708)" fill="#ff6b3d"/>
    <path id="Path_244" data-name="Path 244" d="M75.98,375.473H71.354a3.084,3.084,0,0,0-3.084,3.084v4.626a3.084,3.084,0,0,0,3.084,3.084H75.98a3.084,3.084,0,0,0,3.084-3.084v-4.626A3.084,3.084,0,0,0,75.98,375.473Zm-4.626,7.71v-4.626H75.98v4.626Zm0,0" transform="translate(-55.931 -307.629)" fill="#ff6b3d"/>
    <path id="Path_245" data-name="Path 245" d="M146.612,173.759H168.2a1.542,1.542,0,1,0,0-3.084H146.612a1.542,1.542,0,1,0,0,3.084Zm0,0" transform="translate(-118.854 -139.836)" fill="#ff6b3d"/>
    <path id="Path_246" data-name="Path 246" d="M163.573,247.473h-16.96a1.542,1.542,0,1,0,0,3.084h16.96a1.542,1.542,0,1,0,0-3.084Zm0,0" transform="translate(-118.854 -202.757)" fill="#ff6b3d"/>
    <path id="Path_247" data-name="Path 247" d="M160.489,324.273H146.612a1.542,1.542,0,1,0,0,3.084h13.877a1.542,1.542,0,1,0,0-3.084Zm0,0" transform="translate(-118.854 -265.68)" fill="#ff6b3d"/>
    <path id="Path_248" data-name="Path 248" d="M160.489,401.074H146.612a1.542,1.542,0,1,0,0,3.084h13.877a1.542,1.542,0,1,0,0-3.084Zm0,0" transform="translate(-118.854 -328.604)" fill="#ff6b3d"/>
  </g>
</svg>
