<svg xmlns="http://www.w3.org/2000/svg" width="327.65" height="353.98" viewBox="0 0 327.65 353.98">
  <g id="Group_764" data-name="Group 764" transform="translate(-2784.8 -6854.68)">
    <path id="Path_558" data-name="Path 558" d="M760.82,651.71a125.931,125.931,0,0,1-6.89,34.13,4.662,4.662,0,0,0,1.37.56c5.1,1,10.84-6.49,12.82-16.71s-.53-19.21-5.58-20.27c-.88,3.12-1.5,4.79-1.5,4.79C761,653.33,760.89,652.55,760.82,651.71Z" transform="translate(2250 6314)" fill="#ffb37d"/>
    <path id="Path_559" data-name="Path 559" d="M756.21,688.15a5.7,5.7,0,0,1-3.06-.85l-1.24-.67.47-1.33a125.374,125.374,0,0,0,6.79-33.69h1c.22-.7.49-1.59.78-2.64l.41-1.49,1.52.32c6,1.26,9,11,6.86,22.2C767.71,680.52,762,688.15,756.21,688.15Zm-.17-3.32c3.52.15,8.57-5.74,10.46-15.45,1.65-8.54-.1-15.46-2.9-17.66-.61,2-1,3.07-1,3.07l-.43,1.12A129.645,129.645,0,0,1,756,684.83Z" transform="translate(2250 6314)"/>
    <path id="Path_560" data-name="Path 560" d="M633.67,654.21s-.33-1.08-.77-2.88c-2.93,3.35-4.09,10.5-2.56,18.36,2,10.22,7.72,17.7,12.82,16.71a4.482,4.482,0,0,0,1.09-.45,135.319,135.319,0,0,1-7.35-31.74Z" transform="translate(2250 6314)" fill="#ffb37d"/>
    <path id="Path_561" data-name="Path 561" d="M642.25,688.15h0c-5.81,0-11.5-7.63-13.54-18.15-1.57-8.14-.43-15.9,2.94-19.76l2.08-2.39.77,3.08c.16.64.3,1.19.42,1.62h3.47l.15,1.49a133,133,0,0,0,7.27,31.35l.52,1.43-1.39.64a5.569,5.569,0,0,1-1.46.57,6.486,6.486,0,0,1-1.23.12Zm-9.87-32.49c-1.22,3.53-1.42,8.55-.42,13.72,1.83,9.41,6.65,15.29,10.14,15.45a136.4,136.4,0,0,1-6.69-29Z" transform="translate(2250 6314)"/>
    <path id="Path_562" data-name="Path 562" d="M698.63,744.59c13.07,0,32-1.09,49.75-25.07V699.17c-11.39,23.21-29.44,40.09-49.75,40.09-20,0-37.71-17.4-49.14-40.89h-.62v21.14C666.67,743.5,685.56,744.59,698.63,744.59Z" transform="translate(2250 6314)" fill="#ffb37d"/>
    <path id="Path_563" data-name="Path 563" d="M698.63,746.24c-11.18,0-32,0-51.08-25.74l-.34-.44V696.71h3.32l.45.93c12.17,25,30,40,47.65,40,18.18,0,36.22-14.65,48.26-39.17L750,692v28l-.33.44C730.62,746.24,709.81,746.24,698.63,746.24ZM650.53,719c18,24,37.57,24,48.1,24s30.09,0,48.09-24V705.85c-12.52,22.08-30.17,35.07-48.09,35.07-17.76,0-35.47-13.7-48.1-36.92Z" transform="translate(2250 6314)"/>
    <path id="Path_564" data-name="Path 564" d="M698.63,739.26c20.31,0,38.36-16.88,49.75-40.09a117.73,117.73,0,0,0,5.55-13.33,125.934,125.934,0,0,0,6.89-34.13c-2.63-32.92-20.3-39.17-35.71-54.58a23.24,23.24,0,0,1-6-10.55c-12.82,13.88-36.68,32.67-71.36,31.65v36H636.9A135.32,135.32,0,0,0,644.25,686a129.878,129.878,0,0,0,5.24,12.42C660.92,721.86,678.67,739.26,698.63,739.26Z" transform="translate(2250 6314)" fill="#ffb37d"/>
    <path id="Path_565" data-name="Path 565" d="M698.63,740.92c-19,0-37.9-15.64-50.62-41.83a127.261,127.261,0,0,1-5.31-12.57,135.5,135.5,0,0,1-7.45-32.14l-.19-1.83h11v-36l1.7.05c33.37,1,56.6-16.52,70.1-31.12l2-2.21.78,2.9a21.5,21.5,0,0,0,5.59,9.81c3.33,3.34,6.81,6.27,10.19,9.11,12.28,10.35,23.89,20.12,26,46.51a128.69,128.69,0,0,1-7,34.81,121.9,121.9,0,0,1-5.62,13.51C737.26,725.58,718.1,740.92,698.63,740.92Zm-59.89-85a133.582,133.582,0,0,0,7.07,29.52,129.175,129.175,0,0,0,5.19,12.2c12.17,25,30,40,47.65,40,18.18,0,36.22-14.65,48.26-39.17a115.364,115.364,0,0,0,5.48-13.14,125,125,0,0,0,6.8-33.69c-2-24.77-12.59-33.69-24.84-44-3.42-2.88-7-5.86-10.39-9.3a24.45,24.45,0,0,1-5.56-8.56c-13.8,14.23-36.33,30.19-68,30.19h-1v36Z" transform="translate(2250 6314)"/>
    <path id="Path_566" data-name="Path 566" d="M636.9,654.21h10.83v-36c34.68,1,58.54-17.77,71.36-31.65a30.434,30.434,0,0,1,8.45-29.09c-28-29-68.6-12.92-86.52,19.51-17,30.79-10.55,64.56-8.12,74.33.44,1.8.77,2.88.77,2.88Z" transform="translate(2250 6314)" fill="#b96b6b"/>
    <path id="Path_567" data-name="Path 567" d="M649.39,655.87h-17l-.35-1.19s-.34-1.11-.79-2.95c-2.43-9.81-9-44.23,8.28-75.53,11.92-21.58,33.17-35.52,54.12-35.52,13.06,0,25.18,5.41,35,15.66l1.18,1.21-1.24,1.15a28.7,28.7,0,0,0-8,27.45l.24.88-.62.67c-13.58,14.7-36.74,32.23-69.9,32.23h-1Zm-14.47-3.32h11.16v-36l1.7.05c32.81.9,55.92-16,69.49-30.47a32.36,32.36,0,0,1,7.92-28.64c-9-8.83-19.86-13.48-31.5-13.48-19.77,0-39.87,13.27-51.22,33.81-16.72,30.25-10.33,63.63-8,73.13.19.62.33,1.17.45,1.6Z" transform="translate(2250 6314)"/>
    <path id="Path_568" data-name="Path 568" d="M719.09,586.58a23.241,23.241,0,0,0,6,10.55c15.41,15.41,33.08,21.66,35.71,54.58.07.84.17,1.62.22,2.5,0,0,.62-1.67,1.5-4.79,2.09-7.45,5.65-23.39,5.63-46,0-26.95,0-48.16-24.79-51.35-6.12-.79-11.57,1.49-15.84,5.44A30.515,30.515,0,0,0,719.09,586.58Z" transform="translate(2250 6314)" fill="#b96b6b"/>
    <path id="Path_569" data-name="Path 569" d="M759.8,662.17l-.41-7.87c0-.5-.08-1-.12-1.42l-.1-1c-2-25-12.59-33.92-24.84-44.24-3.42-2.88-7-5.86-10.39-9.3A24.86,24.86,0,0,1,717.49,587a32.16,32.16,0,0,1,8.92-30.74c5-4.59,10.9-6.68,17.18-5.86,26.22,3.37,26.24,26.33,26.24,52.91,0,22.84-3.57,39-5.7,46.55-.89,3.2-1.54,4.92-1.54,4.92ZM741,553.55a18.09,18.09,0,0,0-12.32,5.15,28.7,28.7,0,0,0-8,27.45,21.5,21.5,0,0,0,5.59,9.81c3.33,3.34,6.81,6.27,10.19,9.11,11.32,9.54,22.08,18.6,25.34,40.64a177.383,177.383,0,0,0,4.71-42.31c0-27.15,0-46.7-23.35-49.71a16.42,16.42,0,0,0-2.16-.14Z" transform="translate(2250 6314)"/>
    <path id="Path_570" data-name="Path 570" d="M749.1,759.27s-9.22,9.18-52.65,9.18-48.29-9.18-48.29-9.18h0c-44.67,0-111.7,46.09-111.7,76.88V893H860.8V836.15C860.8,805.36,793.76,759.27,749.1,759.27Z" transform="translate(2250 6314)" fill="#ff6b3d"/>
    <path id="Path_571" data-name="Path 571" d="M862.45,894.66H534.8V836.15c0-31.56,67.8-78.53,113.36-78.53h.94l.48.83c0,.06,5.91,8.34,46.87,8.34,41.75,0,51.41-8.62,51.5-8.71l.48-.45h.67c45.56,0,113.35,47,113.35,78.53Zm-324.34-3.31h321v-55.2c0-29.39-66.24-74.81-109.45-75.22-2.62,2-14.8,9.18-53.24,9.18-37,0-46.72-6.63-49.09-9.18-43.21.55-109.25,45.87-109.25,75.22Z" transform="translate(2250 6314)"/>
    <path id="Path_572" data-name="Path 572" d="M696.45,768.45c43.43,0,52.65-9.18,52.65-9.18a49.65,49.65,0,0,0,0-40.69c-.24.33-.48.62-.72.94-17.79,24-36.68,25.07-49.75,25.07s-32-1.09-49.76-25.08c-.24-.32-.48-.6-.71-.93a49.65,49.65,0,0,0,0,40.69h0S653,768.45,696.45,768.45Z" transform="translate(2250 6314)" fill="#ff6b3d"/>
    <path id="Path_573" data-name="Path 573" d="M696.45,770.11c-43.17,0-49.21-9-49.75-10.06-10.05-22.6-.42-41.45,0-42.24l1.24-2.37,2.27,3.09c18.1,24.41,37.82,24.41,48.42,24.41s30.32,0,48.43-24.41l2.26-3.09,1.25,2.37a50.94,50.94,0,0,1,0,42.13l-.35.5C749.87,760.84,740.06,770.11,696.45,770.11ZM649.67,758.6s6.05,8.19,46.78,8.19c38.48,0,49.7-7.32,51.3-8.54a48.71,48.71,0,0,0,1-36.41c-18.81,24.4-39.09,24.4-50.07,24.4s-31.25,0-50.07-24.4a48.81,48.81,0,0,0,1.11,36.76Z" transform="translate(2250 6314)"/>
  </g>
</svg>
