<svg xmlns="http://www.w3.org/2000/svg" width="1064.7" height="592.878" viewBox="0 0 1064.7 592.878">
  <g id="Group_737" data-name="Group 737" transform="translate(-12197 -762.458)">
    <g id="Group_736" data-name="Group 736" transform="translate(-6 -76)">
      <path id="Path_324" data-name="Path 324" d="M130.495,740.771c-.23-.375-5.641-9.41-7.517-28.172-1.721-17.213-.614-46.227,14.433-86.7,28.506-76.671-6.569-138.533-6.928-139.149l1.73-1c.091.156,9.142,15.929,14.488,41.044a179.061,179.061,0,0,1-7.416,99.807c-28.457,76.54-7.3,112.773-7.084,113.131Z" transform="translate(12132.349 688.961)" fill="#3f3d56"/>
      <circle id="Ellipse_17" data-name="Ellipse 17" cx="13" cy="13" r="13" transform="translate(12238.696 1145.211)" fill="#ff6b3d"/>
      <circle id="Ellipse_18" data-name="Ellipse 18" cx="13" cy="13" r="13" transform="translate(12279.696 1193.211)" fill="#3f3d56"/>
      <circle id="Ellipse_19" data-name="Ellipse 19" cx="13" cy="13" r="13" transform="translate(12251.696 1225.211)" fill="#ff6b3d"/>
      <circle id="Ellipse_20" data-name="Ellipse 20" cx="13" cy="13" r="13" transform="translate(12285.696 1252.211)" fill="#ff6b3d"/>
      <circle id="Ellipse_21" data-name="Ellipse 21" cx="13" cy="13" r="13" transform="translate(12241.696 1294.211)" fill="#3f3d56"/>
      <path id="Path_325" data-name="Path 325" d="M138.348,741.25s-13-32,26-56Z" transform="translate(12132.349 688.961)" fill="#3f3d56"/>
      <path id="Path_326" data-name="Path 326" d="M122.36,740.67s-5.916-34.029-51.708-33.738Z" transform="translate(12132.349 688.961)" fill="#3f3d56"/>
    </g>
    <path id="Path_327" data-name="Path 327" d="M1179.529,549.974H135.333v-2.7H1178Z" transform="translate(12082.171 805)" fill="#2f2e41"/>
    <g id="Group_735" data-name="Group 735" transform="translate(142 2)">
      <path id="Path_341" data-name="Path 341" d="M695.3,116.039c-92.916,0-168.5,75.581-168.5,168.5a167.593,167.593,0,0,0,14.774,68.989c26.407,58.61,85.367,99.508,153.723,99.508a168.59,168.59,0,0,0,168.5-168.5C863.8,191.62,788.2,116.039,695.3,116.039ZM834.708,352.272A155.175,155.175,0,0,1,695.3,439.553c-65.687,0-121.965-41.073-144.49-98.887a153.878,153.878,0,0,1-10.528-56.13c0-85.475,69.542-155.017,155.017-155.017s155.017,69.542,155.017,155.017A153.934,153.934,0,0,1,834.708,352.272Z" transform="translate(12132.349 688.961)" fill="#3f3d56"/>
      <path id="Path_342" data-name="Path 342" d="M842.849,365.832a168.606,168.606,0,0,1-147.549,87.2c-68.356,0-127.316-40.9-153.723-99.508q4.347-6.652,9.234-12.86c22.525,57.815,78.8,98.887,144.49,98.887a155.175,155.175,0,0,0,139.407-87.281Q839.075,358.843,842.849,365.832Z" transform="translate(12132.349 688.961)" fill="#ff6b3d"/>
      <path id="Path_343" data-name="Path 343" d="M657.322,299.947a19.776,19.776,0,1,1-13.871,5.807,19.514,19.514,0,0,1,13.871-5.807m0-8.425a28.088,28.088,0,1,0,28.073,28.1,28.088,28.088,0,0,0-28.073-28.1Zm58.523-40.169a9.58,9.58,0,0,0,9.628-9.628,9.478,9.478,0,0,0-9.568-9.568,9.6,9.6,0,1,0-.06,19.2Zm20.129,48.593a19.777,19.777,0,1,1-13.871,5.807,19.515,19.515,0,0,1,13.871-5.807m0-8.425a28.073,28.073,0,1,0,28.073,28.073,28.073,28.073,0,0,0-28.073-28.073Z" transform="translate(12132.349 688.961)" fill="#ff6b3d"/>
      <path id="Path_344" data-name="Path 344" d="M730.347,270.671H715.905l-8.876-18.083a9.414,9.414,0,0,0-14.894-1.986l-21.574,20.791a9.8,9.8,0,0,0-2.8,6.74c0,5.235,3.791,7.1,5.566,8.154,13.69,7.883,18.5,8.756,18.5,12.7v19.829a4.814,4.814,0,0,0,9.628,0v-27.08c0-3.972-9.147-7.221-14.533-11.434l14.713-15.5c5.627,8.575,8.214,15.5,11.434,15.5h17.271a4.814,4.814,0,1,0,0-9.628Z" transform="translate(12132.349 688.961)" fill="#ff6b3d"/>
      <path id="Path_345" data-name="Path 345" d="M563.642,531.938c-4.147,0-7.581,12.074-8.246,27.906H475.612c-.665-15.832-4.1-27.906-8.246-27.906-4.624,0-8.372,14.993-8.372,33.487s3.748,33.487,8.372,33.487c4.147,0,7.581-12.074,8.246-27.906H555.4c.665,15.832,4.1,27.906,8.246,27.906,4.624,0,8.372-14.993,8.372-33.487S568.266,531.938,563.642,531.938Z" transform="translate(12132.349 688.961)" fill="#ff6b3d"/>
      <path id="Path_346" data-name="Path 346" d="M602.505,515.983a99.773,99.773,0,1,0,12.644,48.581A99.773,99.773,0,0,0,602.505,515.983Zm-87.16,140.392A91.358,91.358,0,1,1,580.4,629.628a91.753,91.753,0,0,1-65.057,26.747Z" transform="translate(12132.349 688.961)" fill="#3f3d56"/>
      <path id="Path_347" data-name="Path 347" d="M615.149,564.564a99.756,99.756,0,0,1-154.276,83.588,102.667,102.667,0,0,1-4.287-13.1A91.76,91.76,0,0,0,589.74,510.821a102.3,102.3,0,0,1,12.765,5.163,99.189,99.189,0,0,1,12.644,48.58Z" transform="translate(12132.349 688.961)" fill="#ff6b3d"/>
      <path id="Path_348" data-name="Path 348" d="M875.255,464.76a99.8,99.8,0,1,0,0,199.608c.647,0,1.281,0,1.928-.027a99.8,99.8,0,1,0-1.928-199.586ZM895.6,654.1A91.818,91.818,0,1,1,875.2,472.74h.054A91.818,91.818,0,0,1,895.6,654.1Z" transform="translate(12132.349 688.961)" fill="#3f3d56"/>
      <path id="Path_349" data-name="Path 349" d="M895.6,654.1a102.659,102.659,0,0,1-18.413,10.245c-.647.027-1.281.027-1.928.027A99.806,99.806,0,0,1,854.928,466.85,102.3,102.3,0,0,1,875.2,472.74,91.817,91.817,0,1,0,895.6,654.1Z" transform="translate(12132.349 688.961)" fill="#ff6b3d"/>
      <path id="Path_350" data-name="Path 350" d="M924.491,560.321a12.2,12.2,0,0,0-12.179,8.313h-9.829l-7.176-21.578a4.043,4.043,0,0,0-3.841-2.779h-.076a4,4,0,0,0-3.79,2.931l-11.244,39.239-13.215-79.363a4.057,4.057,0,0,0-7.934-.328l-13.391,61.879H826.809a4.043,4.043,0,0,0,0,8.085H845a4.03,4.03,0,0,0,3.916-3.057l9.45-46.036,12.962,77.8a4.014,4.014,0,0,0,3.765,3.36h.227a4.055,4.055,0,0,0,3.891-2.931l12.558-43.863,3.967,11.951a4.076,4.076,0,0,0,3.841,2.779h12.911a12.131,12.131,0,1,0,12-16.4Z" transform="translate(12132.349 688.961)" fill="#ff6b3d"/>
    </g>
    <g id="Group_734" data-name="Group 734" transform="translate(-1976 -771)">
      <path id="Path_433" data-name="Path 433" d="M535.521,769.658l-24.966,92.3h85.49l9.835-9.079,3.783,9.079h91.543s9.835-59.768-2.27-64.307S535.521,769.658,535.521,769.658Z" transform="translate(13837.5 1263.957)" fill="#2f2e41"/>
      <circle id="Ellipse_29" data-name="Ellipse 29" cx="52.202" cy="52.202" r="52.202" transform="translate(14416.901 1565.31)" fill="#a0616a"/>
      <path id="Path_434" data-name="Path 434" d="M592.641,379.656s9.835,74.142-5.3,82.464,90.029,9.079,90.029,9.079-23.453-64.307-12.861-83.977Z" transform="translate(13837.5 1263.957)" fill="#a0616a"/>
      <path id="Path_435" data-name="Path 435" d="M627.82,449.637s-26.486-3.956-32.157-17.109l-79.812,35.266s14.374,105.161,22.7,124.074l-10.591,189.9s74.142,49.176,174.007,22.7l24.966-208.808,27.236-124.074-87.2-35.022S649.76,448.124,627.82,449.637Z" transform="translate(13837.5 1263.957)" fill="#ff6b3d"/>
      <path id="Path_436" data-name="Path 436" d="M683.048,688.707s-96.082-3.026-89.273,25.723,95.325-1.513,95.325-1.513Z" transform="translate(13837.5 1263.957)" fill="#a0616a"/>
      <path id="Path_437" data-name="Path 437" d="M588.176,304.177l-9.76-3.908s20.408-22.468,48.8-20.514l-7.986-8.792s19.521-7.815,37.267,12.7c9.329,10.784,20.122,23.46,26.851,37.74H693.8l-4.363,9.606,15.269,9.606-15.673-1.726a53.677,53.677,0,0,1,.425,15.933,20.615,20.615,0,0,1-7.549,13.486h0s-12.1-25.056-12.1-28.964v9.769s-9.76-8.792-9.76-14.653l-5.324,6.838-2.662-10.746L619.232,341.3l5.324-8.792-20.408,2.931,7.986-10.746s-23.07,12.7-23.958,23.445-7.64,20.928-7.64,20.928S562.444,318.83,588.176,304.177Z" transform="translate(13837.5 1263.957)" fill="#2f2e41"/>
      <path id="Path_438" data-name="Path 438" d="M651.652,658.022V670.9a.45.45,0,0,1-.449.449h-.32V738.43a7,7,0,0,1-7,7H601.968a7,7,0,0,1-7-7V673.7h-.232a.317.317,0,0,1-.318-.316v-7.329a.318.318,0,0,1,.318-.318h.232v-2.76h-.233a.333.333,0,0,1-.331-.333v-7.229a.332.332,0,0,1,.331-.331h.233v-3.768h-.237a.294.294,0,0,1-.294-.293v-3.946a.3.3,0,0,1,.294-.3h.237v-7.987a7,7,0,0,1,7-7h41.916a7,7,0,0,1,7,7v18.778h.32a.45.45,0,0,1,.449.449Z" transform="translate(13837.5 1263.957)" fill="#3f3d56"/>
      <circle id="Ellipse_30" data-name="Ellipse 30" cx="6.862" cy="6.862" r="6.862" transform="translate(14453.634 1918.774)" fill="#f2f2f2"/>
      <path id="Path_439" data-name="Path 439" d="M730.711,471.577h23.453s74.9,163.415,56.741,183.085-127.857,73.385-127.857,73.385-8.322-41.61-15.888-41.61l75.655-46.906-37.071-88.516Z" transform="translate(13837.5 1263.957)" fill="#ff6b3d"/>
      <path id="Path_440" data-name="Path 440" d="M562.757,681.9s85.49,45.393,69.6,65.063-92.3-34.8-92.3-34.8Z" transform="translate(13837.5 1263.957)" fill="#a0616a"/>
      <path id="Path_441" data-name="Path 441" d="M526.442,468.551H515.851s-15.131,14.374-19.67,46.906L452.228,613.4a22.135,22.135,0,0,0,.308,18.78c9.754,19.978,35.428,65.06,73.906,78.469l19.67,15.131s-2.27-37.071,28.749-37.071l-52.959-57.5,20.427-66.576Z" transform="translate(13837.5 1263.957)" fill="#ff6b3d"/>
      <path id="Path_444" data-name="Path 444" d="M586.848,564.675l9.055,10.564c3.364-.641,6.877-1.4,10.5-2.242l-2.6-8.322,6.359,7.419C648.488,562.665,696,544.336,696,544.336s-51.294,3.761-89.593-4.606c-16.945-3.7-34.38,4.7-41.334,20.588-4.042,9.236-3.407,17.238,10.928,17.238a94.678,94.678,0,0,0,14.448-1.359Z" transform="translate(13837.5 1263.957)" fill="#2f2e41"/>
    </g>
  </g>
</svg>
