<svg id="undraw_working_out_6psf" xmlns="http://www.w3.org/2000/svg" width="1080" height="589.339" viewBox="0 0 1080 589.339">
  <path id="Path_445" data-name="Path 445" d="M1140,707.811c0-32.167-16.322-58.243-36.457-58.243-12.655,0-23.8,10.305-30.337,25.946a18.288,18.288,0,0,0-6.967-1.4c-6.094,0-11.729,3.123-16.324,8.408-5.892-19.5-18.387-32.955-32.85-32.955-13.522,0-25.316,11.771-31.61,29.24a19.915,19.915,0,0,0-12.477-4.692c-15.452,0-27.978,20.012-27.978,44.7a65.147,65.147,0,0,0,4.408,24.068h183.24C1137.26,733.125,1140,720.98,1140,707.811Z" transform="translate(-60 -155.331)" fill="#ff6b3d"/>
  <path id="Path_446" data-name="Path 446" d="M1009.3,371.482c-28.71-62.107-84.9-115.09-152.771-123.726-17.946-2.283-36.684-1.367-53.335,5.706-21.857,9.285-37.965,28.025-54.246,45.313a654.108,654.108,0,0,1-114.961,96.848C613.3,409.318,591.111,422.1,566.55,425.6c-49.245,7.026-97.956-26.556-120.414-70.942-14.029-27.727-20.512-60.28-31.854-89.119-13.061-.025-28.623-.02-45.365.057-46.277.213-83.944.9-83.944.9s44.774-59.307,83.776-37.334c12.464,7.022,25.519,13.288,37.516,18.567-6.816-13.111-15.413-24.907-27.24-34.392-23.321-18.7-54.907-23.948-84.769-22.555-31.357,1.463-63,9.858-88.482,28.192-45.391,32.662-64.135,90.153-80.178,143.723l38.778,19.44c16.633-14.38,40.956-28.6,63.375-15.975,39,21.973,83.807,36.562,83.807,36.562s-37.362-.338-83.639-.125c-7.772.036-15.292.085-22.441.142L636,618.567c142,2,249.068-5.679,384,0,7.037.3,22.865-36.592,22.918-46.3C1043.29,503.846,1038.01,433.589,1009.3,371.482ZM871.418,390.1c-46.277.213-83.944.9-83.944.9s44.774-59.307,83.776-37.334,83.807,36.562,83.807,36.562-37.363-.338-83.64-.125Z" transform="translate(-60 -155.331)" fill="#f2f2f2"/>
  <path id="Path_447" data-name="Path 447" d="M992,593.067c0-23.388-14.481-42.349-32.344-42.349-11.227,0-21.115,7.493-26.915,18.865a19.363,19.363,0,0,0-6.181-1.016,21.058,21.058,0,0,0-14.483,6.113c-5.228-14.179-16.313-23.962-29.143-23.962-12,0-22.46,8.558-28.043,21.26a20.106,20.106,0,0,0-11.07-3.412c-13.709,0-24.822,14.551-24.822,32.5a39.928,39.928,0,0,0,3.911,17.5H985.477a51.2,51.2,0,0,0,6.523-25.5Z" transform="translate(-60 -155.331)" fill="#ff6b3d" opacity="0.3"/>
  <path id="Path_448" data-name="Path 448" d="M1080,589.237H82v-2h997Z" fill="#2f2e41"/>
  <path id="Path_449" data-name="Path 449" d="M998,465.237H0v-2H997Z" fill="#2f2e41"/>
  <path id="Path_450" data-name="Path 450" d="M483.63,436.467s6.285-46.094,16.761-33.522,0,31.427,0,31.427l-8.381,10.476-8.381-6.285Z" transform="translate(-60 -155.331)" fill="#ffb8b8"/>
  <path id="Path_451" data-name="Path 451" d="M458.488,451.133s20.952-23.047,25.142-18.856,16.761,6.285,14.666,14.666S452.2,482.56,452.2,482.56Z" transform="translate(-60 -155.331)" fill="#ff6b3d"/>
  <path id="Path_452" data-name="Path 452" d="M458.488,451.133s20.952-23.047,25.142-18.856,16.761,6.285,14.666,14.666S452.2,482.56,452.2,482.56Z" transform="translate(-60 -155.331)" opacity="0.1"/>
  <path id="Path_453" data-name="Path 453" d="M339.064,449.038V465.8s-2.1,37.713,10.476,35.618,6.285-33.522,6.285-33.522l-2.1-18.856Z" transform="translate(-60 -155.331)" fill="#ffb8b8"/>
  <path id="Path_454" data-name="Path 454" d="M345.349,570.557s-18.856,29.332-25.142,31.427-39.808,20.952-44,39.808l-29.332,37.713,14.666,18.856s67.045-71.235,85.9-77.521,37.713-37.713,37.713-37.713Z" transform="translate(-60 -155.331)" fill="#ffb8b8"/>
  <path id="Path_455" data-name="Path 455" d="M494.105,522.369s39.808,6.285,33.522,31.427-67.044,77.521-67.044,77.521l-2.1,12.571-23.047,4.19L424.965,637.6l2.1-6.285S452.2,608.27,454.3,599.889s25.142-41.9,35.618-44l-14.666-8.38Z" transform="translate(-60 -155.331)" fill="#ffb8b8"/>
  <path id="Path_456" data-name="Path 456" d="M253.162,679.506s8.381-12.571-4.19-10.476S228.02,673.22,228.02,681.6s10.476,67.045,23.047,62.855,2.1-23.047,2.1-23.047,6.285-16.761,10.476-18.856,4.19-12.571,0-12.571S251.067,683.7,253.162,679.506Z" transform="translate(-60 -155.331)" fill="#2f2e41"/>
  <path id="Path_457" data-name="Path 457" d="M431.251,633.412s0-10.476-8.381,0-12.571,18.856-4.19,25.142,37.713,20.952,37.713,20.952,31.427,6.285,27.237-8.381c0,0-20.952-10.476-20.952-18.856s0-23.047-6.285-18.856S431.251,639.7,431.251,633.412Z" transform="translate(-60 -155.331)" fill="#2f2e41"/>
  <path id="Path_458" data-name="Path 458" d="M391.443,476.275s-29.332,4.19-27.237,46.093c0,0-37.713,37.713-27.237,50.284s33.522,35.618,41.9,29.332,33.522-54.474,33.522-54.474,58.664,20.952,69.14,10.476,20.952-35.618,20.952-35.618l-52.379-27.237Z" transform="translate(-60 -155.331)" fill="#2f2e41"/>
  <circle id="Ellipse_32" data-name="Ellipse 32" cx="25.142" cy="25.142" r="25.142" transform="translate(388.012 151.237)" fill="#ffb8b8"/>
  <path id="Path_459" data-name="Path 459" d="M454.3,333.8s-14.666,23.047-18.856,25.142,29.332,23.047,29.332,23.047,0-27.237,10.476-33.522Z" transform="translate(-60 -155.331)" fill="#ffb8b8"/>
  <path id="Path_460" data-name="Path 460" d="M452.2,356.851s-33.522-10.476-39.808,6.285-20.952,48.189-18.856,69.14,6.285,16.761,0,23.047-10.476,2.1-8.381,10.476,4.19,8.381,2.1,12.571,25.142,18.857,48.189,20.952l23.047,2.1s0-37.713,4.19-46.094,12.571-25.142,12.571-31.427V407.265a63.607,63.607,0,0,0-8.381-31.558h0S454.3,356.851,452.2,356.851Z" transform="translate(-60 -155.331)" fill="#ff6b3d"/>
  <path id="Path_461" data-name="Path 461" d="M427.06,365.232s-77.521,6.285-85.9,27.237-12.571,62.855-4.19,62.855,18.856,4.19,20.952,0S368.4,409.23,370.491,409.23s64.95-6.285,64.95-6.285S462.678,369.422,427.06,365.232Z" transform="translate(-60 -155.331)" fill="#ff6b3d"/>
  <path id="Path_462" data-name="Path 462" d="M474.164,325.476s6.672-11.595,15.012-1.524,21.907-8.436,19.824-12.385-9.438.178-22.042-3.943-36.885-12.514-40.951,14.867S451.625,347,451.625,347s4.439-24.263,8.451-17.294l4.012,6.969,3.48.857Z" transform="translate(-60 -155.331)" fill="#2f2e41"/>
  <circle id="Ellipse_33" data-name="Ellipse 33" cx="30.674" cy="30.674" r="30.674" transform="translate(620.635 44.639)" fill="#2f2e41"/>
  <path id="Path_463" data-name="Path 463" d="M701.5,253.349s1.587,28.572-1.587,28.572,19.841,13.492,19.841,13.492l14.286-7.937v-9.524S715,275.571,722.933,254.936,701.5,253.349,701.5,253.349Z" transform="translate(-60 -155.331)" fill="#9f616a"/>
  <path id="Path_464" data-name="Path 464" d="M574.835,411.517l-2.381,23.81,7.937,2.381,6.349-6.349,2.381-19.842Z" fill="#9f616a"/>
  <path id="Path_465" data-name="Path 465" d="M689.124,425.01l3.968,15.079,11.111,7.143,11.906-6.349L702.616,418.66Z" fill="#9f616a"/>
  <circle id="Ellipse_34" data-name="Ellipse 34" cx="23.016" cy="23.016" r="23.016" transform="translate(626.028 64.287)" fill="#9f616a"/>
  <path id="Path_466" data-name="Path 466" d="M695.154,328.747l-5.556-2.381s-9.524-5.556-10.318-16.667,7.937-25.4,7.937-25.4l12.7-3.968,14.92,12.143.16,19.6Z" transform="translate(-60 -155.331)" fill="#9f616a"/>
  <path id="Path_467" data-name="Path 467" d="M689.6,285.889l-3.175-1.587s-15.873-.794-17.461,18.254-7.143,50.795-7.143,50.795-12.7,22.223-11.905,46.033l-6.349,20.635s-8.73,30.159,1.587,30.159,9.524-32.54,9.524-32.54,19.048-46.033,20.635-53.97,15.08-45.239,11.111-55.557S689.6,285.889,689.6,285.889Z" transform="translate(-60 -155.331)" fill="#9f616a"/>
  <path id="Path_468" data-name="Path 468" d="M701.5,335.89v8.73s5.556,6.349,3.175,10.318-4.762,11.9-4.762,11.9L711.028,384.3l37.3,3.175,7.418-49.7Z" transform="translate(-60 -155.331)" fill="#9f616a"/>
  <path id="Path_469" data-name="Path 469" d="M736.425,280.333l6.349-3.175s13.492-9.524,24.6-11.111l34.128-23.016,22.223-53.176s-.794-28.572,5.556-25.4,5.556,27.779,5.556,27.779-11.905,49.208-22.223,62.7S765,290.651,765,290.651s-10.318,11.9-9.524,17.461S736.425,280.333,736.425,280.333Z" transform="translate(-60 -155.331)" fill="#9f616a"/>
  <path id="Path_470" data-name="Path 470" d="M707.059,366.843s-8.73-5.556-14.286,3.968-15.873,11.9-22.223,40.477-21.428,73.812-25.4,76.987-20.635,36.509-11.111,83.335h15.873l13.493-67.462s43.652-53.97,46.826-76.192l14.286,83.335s.794,31.747,12.7,46.827l12.7,30.159,16.667-7.937-19.048-76.192s9.524-76.986,3.175-98.415l-.912-28.094S723.726,378.748,707.059,366.843Z" transform="translate(-60 -155.331)" fill="#2f2e41"/>
  <path id="Path_471" data-name="Path 471" d="M640.391,586.69h-9.524c-1.587,0-14.286,10.318-8.73,15.873s14.286,15.873,14.286,15.873,30.953,3.937,31.747-1.619-13.492-17.429-13.492-17.429l-3.968-12.7S642.772,577.959,640.391,586.69Z" transform="translate(-60 -155.331)" fill="#2f2e41"/>
  <path id="Path_472" data-name="Path 472" d="M766.584,594.626s-13.492-.794-15.873-1.587-7.143,20.635,0,22.223,36.509,3.969,36.509,3.969,23.016-.794,21.429-7.143-32.54-19.048-32.54-19.048S772.14,585.1,766.584,594.626Z" transform="translate(-60 -155.331)" fill="#2f2e41"/>
  <path id="Path_473" data-name="Path 473" d="M703.885,279.54l-3.968-2.381-4.762,3.968s14.286,9.524,11.111,18.254S689.6,326.366,689.6,326.366,701.5,339.859,701.5,344.621c0,0,30.953-11.111,53.969,0,0,0,0-15.873,3.175-19.048s4.762-14.286-3.175-23.81a174.006,174.006,0,0,1-15.08-22.223l-7.937-4.762-4.088,1.3s8.056,9.021.12,9.815S707.853,284.3,703.885,279.54Z" transform="translate(-60 -155.331)" fill="#ff6b3d"/>
  <path id="Path_474" data-name="Path 474" d="M733.728,178.347a16.767,16.767,0,0,1-10.4,5.448c-6.933.99-1.486,11.886-1.486,11.886s-1.981-3.962,1.981-7.429S733.728,182.8,733.728,178.347Z" transform="translate(-60 -155.331)" fill="#2f2e41"/>
  <circle id="Ellipse_35" data-name="Ellipse 35" cx="8.549" cy="8.549" r="8.549" transform="translate(651.811 34.079)" fill="#2f2e41"/>
  <path id="Path_475" data-name="Path 475" d="M730.34,206.376c-6.6-3.45-17.965-6.163-24-5.969l1.527-5.838c5.344,3.631,16.645,6.394,24,5.969Z" transform="translate(-60 -155.331)" fill="#ff6b3d"/>
  <path id="Path_476" data-name="Path 476" d="M716.7,206.89s-10.407,13.38-31.221,16.354-4.46,35.681-4.46,35.681-5.947-11.894,5.947-22.3S716.7,220.27,716.7,206.89Z" transform="translate(-60 -155.331)" fill="#2f2e41"/>
  <path id="Path_477" data-name="Path 477" d="M717.49,206.1s5.947,20.814,14.867,23.787,4.46,34.194-10.407,37.167c0,0,12.637-17.1,5.2-30.477S715.26,212.786,717.49,206.1Z" transform="translate(-60 -155.331)" fill="#2f2e41"/>
  <rect id="Rectangle_116" data-name="Rectangle 116" width="54.763" height="6.349" transform="translate(742.696 15.873)" fill="#2f2e41"/>
  <ellipse id="Ellipse_36" data-name="Ellipse 36" cx="4.762" cy="19.048" rx="4.762" ry="19.048" transform="translate(792.698 0)" fill="#2f2e41"/>
  <ellipse id="Ellipse_37" data-name="Ellipse 37" cx="4.762" cy="19.048" rx="4.762" ry="19.048" transform="translate(737.934 0)" fill="#2f2e41"/>
  <rect id="Rectangle_117" data-name="Rectangle 117" width="54.763" height="6.349" transform="translate(770.475 442.882)" fill="#2f2e41"/>
  <ellipse id="Ellipse_38" data-name="Ellipse 38" cx="4.762" cy="19.048" rx="4.762" ry="19.048" transform="translate(820.476 427.009)" fill="#2f2e41"/>
  <ellipse id="Ellipse_39" data-name="Ellipse 39" cx="4.762" cy="19.048" rx="4.762" ry="19.048" transform="translate(765.713 427.009)" fill="#2f2e41"/>
  <path id="Path_478" data-name="Path 478" d="M254,593.067c0-23.388-14.481-42.349-32.344-42.349-11.227,0-21.115,7.493-26.915,18.865a19.363,19.363,0,0,0-6.181-1.016,21.058,21.058,0,0,0-14.483,6.113c-5.228-14.179-16.313-23.962-29.143-23.962-12,0-22.46,8.558-28.043,21.26a20.107,20.107,0,0,0-11.07-3.412c-13.709,0-24.822,14.551-24.822,32.5a39.928,39.928,0,0,0,3.911,17.5H247.477a51.2,51.2,0,0,0,6.523-25.5Z" transform="translate(-60 -155.331)" fill="#ff6b3d" opacity="0.3"/>
</svg>
