<svg xmlns="http://www.w3.org/2000/svg" width="46.598" height="46.598" viewBox="0 0 46.598 46.598">
  <g id="Group_534" data-name="Group 534" transform="translate(0)">
    <path id="Path_276" data-name="Path 276" d="M23.3,0A23.3,23.3,0,1,0,46.6,23.3,23.3,23.3,0,0,0,23.3,0Zm0,8.184,13.787,8.6H9.513ZM37.259,30.51h0a2.5,2.5,0,0,1-2.5,2.5H11.839a2.5,2.5,0,0,1-2.5-2.5V17.328a2.483,2.483,0,0,1,.039-.427l13.173,8.214c.016.01.033.017.05.026l.053.028a1.383,1.383,0,0,0,.287.112l.03.006a1.421,1.421,0,0,0,.325.041h0a1.4,1.4,0,0,0,.325-.041l.03-.006a1.4,1.4,0,0,0,.287-.112L24,25.142c.016-.009.034-.016.05-.026L37.22,16.9a2.481,2.481,0,0,1,.039.427V30.51Z" transform="translate(-0.001)" fill="#ff6b3d"/>
  </g>
</svg>
