<svg xmlns="http://www.w3.org/2000/svg" width="101.357" height="88.925" viewBox="0 0 101.357 88.925">
  <g id="exercise_1_" data-name="exercise (1)" transform="translate(0 0)">
    <path id="Path_249" data-name="Path 249" d="M99.872,85.955h-5.72a8.261,8.261,0,0,0,.023-9.7,8.759,8.759,0,0,0,3.509-1.7,2.555,2.555,0,0,0,.063-3.936L84.005,58.869a7.356,7.356,0,0,1-2.193-3.251L78.6,46.03l0-.009L75.707,37.39a12.959,12.959,0,0,0-8.382-8.225l-9.957-3.127a10.516,10.516,0,0,0,4.474-8.6V10.524a10.524,10.524,0,1,0-21.049,0v6.912A10.508,10.508,0,0,0,44.9,25.768q-.387.107-.773.227l-10.1,3.171a12.959,12.959,0,0,0-8.382,8.225L19.543,55.618a7.35,7.35,0,0,1-2.192,3.251L3.609,70.618a2.554,2.554,0,0,0,.063,3.935,8.746,8.746,0,0,0,3.68,1.738,9.165,9.165,0,0,0-.52,7.6,8.234,8.234,0,0,0,1.134,2.061H1.485a1.485,1.485,0,0,0,0,2.969H99.872a1.485,1.485,0,0,0,0-2.97ZM66.083,51.319l5.244,13.048a1.522,1.522,0,0,0,.1.21,10.342,10.342,0,0,0,3.823,3.7l1.738.969-10.91-3.331Zm15.992,9.807L95.42,72.534a5.745,5.745,0,0,1-6,.242L76.7,65.686a7.365,7.365,0,0,1-2.665-2.541l-4.674-11.63,6.932-3.026L79,56.56a10.33,10.33,0,0,0,3.078,4.565ZM43.763,17.436V10.524a7.555,7.555,0,1,1,15.11,0v6.912a7.555,7.555,0,1,1-15.11,0ZM34.92,32l10.1-3.17a18.8,18.8,0,0,1,11.319,0L66.436,32a9.98,9.98,0,0,1,6.455,6.336l2.455,7.328-7.093,3.1L65.975,43.09a1.484,1.484,0,0,0-2.862.554V65.531H38.243V43.643a1.484,1.484,0,0,0-2.862-.554L33.409,48l-7.007-3.5,2.062-6.158A9.98,9.98,0,0,1,34.92,32ZM19.28,61.126a10.317,10.317,0,0,0,3.078-4.565l3.09-9.225L32.3,50.76l-1.08,2.686a1.485,1.485,0,1,0,2.755,1.107l1.3-3.233V65.913l-10.7,3.217,1.523-.85a10.336,10.336,0,0,0,3.824-3.7,1.488,1.488,0,0,0,.1-.211l1.11-2.762A1.485,1.485,0,0,0,28.384,60.5L27.32,63.145a7.356,7.356,0,0,1-2.664,2.541l-12.719,7.09a5.746,5.746,0,0,1-6-.241ZM14.19,85.955h-.005a4.661,4.661,0,0,1-4.576-3.113,6.232,6.232,0,0,1,1.408-6.534L36.976,68.5h27.4l24.645,7.526a5.29,5.29,0,0,1,1.711,9.229l-.895.7H58.484A7.543,7.543,0,0,0,56.736,82.3l2.958-.163a1.485,1.485,0,0,0-.163-2.965l-8.047.445c-.34-.061-.7-.112-1.068-.15l-22.9-2.392a1.485,1.485,0,1,0-.309,2.953l22.9,2.392c.346.036.672.084.977.143l.019,0c2.964.582,4.006,2.195,4.366,3.389Zm0,0" fill="#ff6b3d"/>
    <path id="Path_250" data-name="Path 250" d="M334,398.5c.027,0,.055,0,.083,0l10.013-.553a1.485,1.485,0,0,0-.164-2.965l-10.013.553A1.484,1.484,0,0,0,334,398.5Zm0,0" transform="translate(-266.694 -316.79)" fill="#ff6b3d"/>
  </g>
</svg>
