<svg xmlns="http://www.w3.org/2000/svg" width="104.871" height="118.184" viewBox="0 0 104.871 118.184">
  <path id="exercise" d="M105.136,48.381a1.734,1.734,0,0,0-1.451-.86l-39.15-1.03a8.2,8.2,0,0,0,1.582-1.237l3.471-3.471A8.15,8.15,0,0,0,58.06,30.258l-3.471,3.471a8.1,8.1,0,0,0-2.26,4.369L42.184,27.521a1.731,1.731,0,0,0-2.5,2.4l2.2,2.293-3.021,2.176L24.09,16.161a3.472,3.472,0,0,0,1.769-.66l9.034,9.42a1.731,1.731,0,1,0,2.5-2.4L27.282,11.983l-.349-9.724A2.279,2.279,0,0,0,22.8.955L2.281,29.661a9.656,9.656,0,0,0,.251,11.513l13.2,18.621A7.5,7.5,0,0,0,17.8,61.686a12.175,12.175,0,0,0-.068,1.383l.55,50.822a4.352,4.352,0,0,0,4.338,4.292h9.468a3.145,3.145,0,0,0,1.5-5.91c-.047-.025-.095-.049-.144-.069l-5.432-2.324a.757.757,0,0,1-.451-.79l1.866-14.7A1.731,1.731,0,1,0,26,93.952l-.277,2.182H21.558l-.357-33.1a8.772,8.772,0,0,1,.168-1.814c.011-.042.021-.086.029-.129a8.581,8.581,0,0,1,2.49-4.428,1.731,1.731,0,0,0-2.39-2.5,12.141,12.141,0,0,0-2.723,3.893,2.293,2.293,0,0,1-.215-.255L5.331,39.136c-.017-.024-.035-.049-.054-.072A6.176,6.176,0,0,1,5.1,31.674L14.043,19.16l1.976,1.563L10.6,30.884c-.016.03-.032.06-.046.091a4.765,4.765,0,0,0,1.216,5.576L31.166,53.239,26.854,87.2a1.732,1.732,0,0,0,1.5,1.936,1.8,1.8,0,0,0,.22.014,1.731,1.731,0,0,0,1.715-1.513l2.746-21.627H42.36c5.308,0,10.042-.443,14.2-5.87L57.83,58.71l39.2-2.395.039,0a9.6,9.6,0,0,0,6.539-3.4,1.827,1.827,0,0,0,.2-.293l1.361-2.548a1.729,1.729,0,0,0-.031-1.686ZM25.28,99.6l-1.151,9.058a4.235,4.235,0,0,0,2.525,4.409l3.874,1.657h-7.9a.879.879,0,0,1-.876-.867L21.6,99.6ZM57.038,36.177l3.47-3.471a4.688,4.688,0,0,1,6.631,6.629l-3.47,3.471a4.688,4.688,0,0,1-6.631-6.629ZM16.058,16.34,23.6,5.8l.248,6.9a.035.035,0,0,1-.032.023H22.633a3.681,3.681,0,0,0-.512.038c-.028,0-.054.006-.082.01L22,12.766l-.02,0c-.032.005-.063.012-.094.019a3.884,3.884,0,0,0-2.049,1.11l-.037.036-.028.028c-.019.021-.036.042-.054.063l-.022.024a3.862,3.862,0,0,0-.592.893L17.673,17.62ZM13.685,32.459l7.6-14.258L41.612,43.273A8.125,8.125,0,0,1,33.639,50.8L14.03,33.928a1.287,1.287,0,0,1-.345-1.469ZM56.9,55.3a1.732,1.732,0,0,0-1.191.581l-1.783,2.014c-.028.032-.055.065-.08.1-2.4,3.151-4.629,4.557-11.489,4.557H33.473l1.058-8.33A11.593,11.593,0,0,0,45.095,42.686a1.733,1.733,0,0,0-.387-1.09l-3.66-4.516,3.257-2.346,10.57,11.02a12.586,12.586,0,0,0,9.351,4.193l4,.105.091,4.548Zm39.9-2.437L71.774,54.389l-.086-4.246,29.072.765a6.127,6.127,0,0,1-3.96,1.953Zm0,0" transform="translate(-0.5 0.001)" fill="#ff6b3d"/>
</svg>
