<svg id="facebook" xmlns="http://www.w3.org/2000/svg" width="54.858" height="54.858" viewBox="0 0 54.858 54.858">
  <path id="Path_10" data-name="Path 10" d="M291.543,508.668q-.343.056-.688.1Q291.2,508.724,291.543,508.668Zm0,0" transform="translate(-259.691 -454.167)" fill="#ff6747"/>
  <path id="Path_11" data-name="Path 11" d="M299.667,507.793l-.328.057Zm0,0" transform="translate(-267.267 -453.385)" fill="#ff6747"/>
  <path id="Path_12" data-name="Path 12" d="M278.416,510.34q-.4.045-.807.08Q278.015,510.386,278.416,510.34Zm0,0" transform="translate(-247.865 -455.659)" fill="#ff6747"/>
  <path id="Path_13" data-name="Path 13" d="M286.832,509.738c-.129.017-.258.033-.387.048C286.575,509.771,286.7,509.755,286.832,509.738Zm0,0" transform="translate(-255.754 -455.122)" fill="#ff6747"/>
  <path id="Path_14" data-name="Path 14" d="M306.954,506.41l-.29.061Zm0,0" transform="translate(-273.806 -452.151)" fill="#ff6747"/>
  <path id="Path_15" data-name="Path 15" d="M324.718,502.113l-.234.065Zm0,0" transform="translate(-289.717 -448.314)" fill="#ff6747"/>
  <path id="Path_16" data-name="Path 16" d="M319.313,503.543l-.254.066Zm0,0" transform="translate(-284.873 -449.591)" fill="#ff6747"/>
  <path id="Path_17" data-name="Path 17" d="M312.337,505.254l-.27.061Zm0,0" transform="translate(-278.63 -451.118)" fill="#ff6747"/>
  <path id="Path_18" data-name="Path 18" d="M273.914,511.09q-.217.018-.434.033Q273.7,511.108,273.914,511.09Zm0,0" transform="translate(-244.178 -456.329)" fill="#ff6747"/>
  <path id="Path_19" data-name="Path 19" d="M54.858,27.429A27.429,27.429,0,1,0,27.429,54.858c.161,0,.321,0,.482-.006V33.5H22.018V26.632h5.893V21.578c0-5.861,3.578-9.051,8.806-9.051A48.51,48.51,0,0,1,42,12.8v6.126H38.4c-2.844,0-3.4,1.352-3.4,3.335v4.374h6.8L40.915,33.5H35V53.8A27.444,27.444,0,0,0,54.858,27.429Zm0,0" fill="#ff6747"/>
  <path id="Path_20" data-name="Path 20" d="M265.75,511.43q-.428.028-.86.043Q265.322,511.458,265.75,511.43Zm0,0" transform="translate(-236.509 -456.633)" fill="#ff6747"/>
  <path id="Path_21" data-name="Path 21" d="M260.959,511.836q-.227.008-.455.011Q260.732,511.844,260.959,511.836Zm0,0" transform="translate(-232.592 -456.995)" fill="#ff6747"/>
</svg>
