<svg id="instagram" xmlns="http://www.w3.org/2000/svg" width="54.858" height="54.858" viewBox="0 0 54.858 54.858">
  <path id="Path_22" data-name="Path 22" d="M217.5,212.25a5.25,5.25,0,1,1-5.25-5.25A5.25,5.25,0,0,1,217.5,212.25Zm0,0" transform="translate(-184.821 -184.821)" fill="#ff6747"/>
  <path id="Path_23" data-name="Path 23" d="M160.676,139.112a5.216,5.216,0,0,0-2.989-2.989,8.714,8.714,0,0,0-2.924-.542c-1.661-.076-2.159-.092-6.365-.092s-4.7.016-6.365.092a8.72,8.72,0,0,0-2.924.542,5.218,5.218,0,0,0-2.99,2.989,8.717,8.717,0,0,0-.542,2.925c-.076,1.661-.092,2.159-.092,6.365s.016,4.7.092,6.365a8.714,8.714,0,0,0,.542,2.924,5.216,5.216,0,0,0,2.989,2.989,8.7,8.7,0,0,0,2.925.542c1.661.076,2.158.092,6.364.092s4.7-.016,6.365-.092a8.7,8.7,0,0,0,2.925-.542,5.216,5.216,0,0,0,2.989-2.989,8.722,8.722,0,0,0,.542-2.924c.076-1.661.092-2.159.092-6.365s-.016-4.7-.092-6.365A8.7,8.7,0,0,0,160.676,139.112ZM148.4,156.489a8.088,8.088,0,1,1,8.088-8.088A8.088,8.088,0,0,1,148.4,156.489Zm8.408-14.605a1.89,1.89,0,1,1,1.89-1.89A1.89,1.89,0,0,1,156.8,141.883Zm0,0" transform="translate(-120.968 -120.972)" fill="#ff6747"/>
  <path id="Path_24" data-name="Path 24" d="M27.429,0A27.429,27.429,0,1,0,54.858,27.429,27.432,27.432,0,0,0,27.429,0ZM43.084,33.923a11.556,11.556,0,0,1-.732,3.823,8.053,8.053,0,0,1-4.606,4.606,11.563,11.563,0,0,1-3.823.732c-1.68.077-2.216.1-6.494.1s-4.814-.018-6.494-.1a11.564,11.564,0,0,1-3.823-.732,8.053,8.053,0,0,1-4.606-4.606,11.553,11.553,0,0,1-.732-3.823c-.077-1.68-.1-2.217-.1-6.494s.018-4.814.1-6.494a11.557,11.557,0,0,1,.732-3.823,8.059,8.059,0,0,1,4.607-4.606,11.566,11.566,0,0,1,3.823-.732c1.68-.077,2.216-.1,6.494-.1s4.814.018,6.494.1a11.569,11.569,0,0,1,3.823.731,8.056,8.056,0,0,1,4.606,4.607,11.554,11.554,0,0,1,.732,3.823c.077,1.68.095,2.216.095,6.494S43.161,32.243,43.084,33.923Zm0,0" fill="#ff6747"/>
</svg>
