<svg xmlns="http://www.w3.org/2000/svg" width="48.905" height="48.905" viewBox="0 0 48.905 48.905">
  <g id="Group_536" data-name="Group 536" transform="translate(0)">
    <g id="Group_535" data-name="Group 535" transform="translate(0)">
      <circle id="Ellipse_11" data-name="Ellipse 11" cx="1.191" cy="1.191" r="1.191" transform="translate(23.262 37.103)" fill="#ff6b3d"/>
      <path id="Path_277" data-name="Path 277" d="M124.014,68.248h-12.12a1.206,1.206,0,0,0-1.232,1.174V92.333a1.205,1.205,0,0,0,1.232,1.174h12.12a1.206,1.206,0,0,0,1.232-1.174V69.422A1.206,1.206,0,0,0,124.014,68.248Z" transform="translate(-93.551 -57.122)" fill="#ff6b3d"/>
      <path id="Path_278" data-name="Path 278" d="M24.453,0A24.453,24.453,0,1,0,48.906,24.452,24.453,24.453,0,0,0,24.453,0Zm9.513,36.519A3.383,3.383,0,0,1,30.584,39.9H18.322a3.383,3.383,0,0,1-3.382-3.382V12.279A3.383,3.383,0,0,1,18.322,8.9H30.584a3.383,3.383,0,0,1,3.382,3.382Z" transform="translate(-0.001 0)" fill="#ff6b3d"/>
    </g>
  </g>
</svg>
