<svg xmlns="http://www.w3.org/2000/svg" width="104.833" height="83.867" viewBox="0 0 104.833 83.867">
  <g id="Group_439" data-name="Group 439" transform="translate(-154.394 -690.883)">
    <g id="weightlifting_2" transform="translate(154.394 690.883)">
      <g id="Group_384" data-name="Group 384" transform="translate(94.35 80.372)">
        <g id="Group_383" data-name="Group 383">
          <path id="Path_205" data-name="Path 205" d="M469.537,443.733h-6.989a1.747,1.747,0,0,0,0,3.494h6.989a1.747,1.747,0,0,0,0-3.494Z" transform="translate(-460.801 -443.733)" fill="#ff6b3d"/>
        </g>
      </g>
      <g id="Group_386" data-name="Group 386" transform="translate(0 80.372)">
        <g id="Group_385" data-name="Group 385">
          <path id="Path_206" data-name="Path 206" d="M33.2,443.733H1.747a1.747,1.747,0,0,0,0,3.494H33.2a1.747,1.747,0,0,0,0-3.494Z" transform="translate(0 -443.733)" fill="#ff6b3d"/>
        </g>
      </g>
      <g id="Group_388" data-name="Group 388" transform="translate(69.889 80.372)">
        <g id="Group_387" data-name="Group 387">
          <path id="Path_207" data-name="Path 207" d="M357.058,443.733H343.08a1.747,1.747,0,0,0,0,3.494h13.978a1.747,1.747,0,0,0,0-3.494Z" transform="translate(-341.333 -443.733)" fill="#ff6b3d"/>
        </g>
      </g>
      <g id="Group_390" data-name="Group 390" transform="translate(20.967 73.383)">
        <g id="Group_389" data-name="Group 389">
          <path id="Path_208" data-name="Path 208" d="M111.137,409.6h-6.989a1.748,1.748,0,0,0-1.747,1.747v6.989a1.748,1.748,0,0,0,1.747,1.747h6.989a1.748,1.748,0,0,0,1.747-1.747v-6.989A1.748,1.748,0,0,0,111.137,409.6Zm-1.747,6.989H105.9v-3.495h3.495Z" transform="translate(-102.401 -409.6)" fill="#ff6b3d"/>
        </g>
      </g>
      <g id="Group_392" data-name="Group 392" transform="translate(6.989 0)">
        <g id="Group_391" data-name="Group 391">
          <path id="Path_209" data-name="Path 209" d="M39.375,51.2a5.248,5.248,0,0,0-5.242,5.242V84.4a5.242,5.242,0,0,0,10.483,0V56.442A5.248,5.248,0,0,0,39.375,51.2Zm1.747,33.2a1.747,1.747,0,1,1-3.494,0V56.442a1.747,1.747,0,0,1,3.494,0Z" transform="translate(-34.133 -51.2)" fill="#ff6b3d"/>
        </g>
      </g>
      <g id="Group_394" data-name="Group 394" transform="translate(20.967 6.989)">
        <g id="Group_393" data-name="Group 393">
          <path id="Path_210" data-name="Path 210" d="M111.137,85.333h-6.989A1.748,1.748,0,0,0,102.4,87.08V106.3a5.242,5.242,0,1,0,10.483,0V87.08A1.748,1.748,0,0,0,111.137,85.333ZM109.39,106.3a1.747,1.747,0,1,1-3.494,0V88.828h3.495V106.3Z" transform="translate(-102.401 -85.333)" fill="#ff6b3d"/>
        </g>
      </g>
      <g id="Group_396" data-name="Group 396" transform="translate(73.384 6.989)">
        <g id="Group_395" data-name="Group 395">
          <path id="Path_211" data-name="Path 211" d="M367.137,85.333h-6.989A1.748,1.748,0,0,0,358.4,87.08V106.3a5.242,5.242,0,1,0,10.483,0V87.08A1.748,1.748,0,0,0,367.137,85.333ZM365.39,106.3a1.747,1.747,0,1,1-3.494,0V88.828h3.495V106.3Z" transform="translate(-358.401 -85.333)" fill="#ff6b3d"/>
        </g>
      </g>
      <g id="Group_398" data-name="Group 398" transform="translate(13.978 13.978)">
        <g id="Group_397" data-name="Group 397">
          <path id="Path_212" data-name="Path 212" d="M77,119.467H70.014a1.748,1.748,0,0,0-1.747,1.747V128.2a1.748,1.748,0,0,0,1.747,1.747H77A1.748,1.748,0,0,0,78.75,128.2v-6.989A1.748,1.748,0,0,0,77,119.467Zm-1.747,6.989H71.761v-3.495h3.495Z" transform="translate(-68.267 -119.467)" fill="#ff6b3d"/>
        </g>
      </g>
      <g id="Group_400" data-name="Group 400" transform="translate(80.372 13.978)">
        <g id="Group_399" data-name="Group 399">
          <path id="Path_213" data-name="Path 213" d="M401.27,119.467h-6.989a1.748,1.748,0,0,0-1.747,1.747V128.2a1.748,1.748,0,0,0,1.747,1.747h6.989a1.748,1.748,0,0,0,1.747-1.747v-6.989A1.748,1.748,0,0,0,401.27,119.467Zm-1.747,6.989h-3.495v-3.495h3.495Z" transform="translate(-392.534 -119.467)" fill="#ff6b3d"/>
        </g>
      </g>
      <g id="Group_402" data-name="Group 402" transform="translate(27.956 13.978)">
        <g id="Group_401" data-name="Group 401">
          <path id="Path_214" data-name="Path 214" d="M183.709,119.467H138.281a1.748,1.748,0,0,0-1.747,1.747V128.2a1.748,1.748,0,0,0,1.747,1.747h45.428a1.748,1.748,0,0,0,1.747-1.747v-6.989A1.748,1.748,0,0,0,183.709,119.467Zm-1.747,6.989H140.028v-3.495h41.933Z" transform="translate(-136.534 -119.467)" fill="#ff6b3d"/>
        </g>
      </g>
      <g id="Group_404" data-name="Group 404" transform="translate(87.361 0)">
        <g id="Group_403" data-name="Group 403">
          <path id="Path_215" data-name="Path 215" d="M431.909,51.2a5.248,5.248,0,0,0-5.242,5.242V84.4a5.242,5.242,0,1,0,10.483,0V56.442A5.248,5.248,0,0,0,431.909,51.2Zm1.747,33.2a1.747,1.747,0,1,1-3.494,0V56.442a1.747,1.747,0,0,1,3.494,0Z" transform="translate(-426.667 -51.2)" fill="#ff6b3d"/>
        </g>
      </g>
      <g id="Group_406" data-name="Group 406" transform="translate(94.35 13.978)">
        <g id="Group_405" data-name="Group 405">
          <path id="Path_216" data-name="Path 216" d="M469.537,119.467h-6.989a1.748,1.748,0,0,0-1.747,1.747V128.2a1.748,1.748,0,0,0,1.747,1.747h6.989a1.748,1.748,0,0,0,1.747-1.747v-6.989A1.748,1.748,0,0,0,469.537,119.467Zm-1.747,6.989H464.3v-3.495h3.495Z" transform="translate(-460.801 -119.467)" fill="#ff6b3d"/>
        </g>
      </g>
      <g id="Group_408" data-name="Group 408" transform="translate(0 13.978)">
        <g id="Group_407" data-name="Group 407">
          <path id="Path_217" data-name="Path 217" d="M8.736,119.467H1.747A1.748,1.748,0,0,0,0,121.214V128.2a1.748,1.748,0,0,0,1.747,1.747H8.736a1.748,1.748,0,0,0,1.747-1.747v-6.989A1.748,1.748,0,0,0,8.736,119.467Zm-1.747,6.989H3.495v-3.495H6.989v3.495Z" transform="translate(0 -119.467)" fill="#ff6b3d"/>
        </g>
      </g>
      <g id="Group_410" data-name="Group 410" transform="translate(24.461 29.703)">
        <g id="Group_409" data-name="Group 409">
          <path id="Path_218" data-name="Path 218" d="M121.214,196.267a1.748,1.748,0,0,0-1.747,1.747v43.681a1.747,1.747,0,1,0,3.494,0V198.014A1.748,1.748,0,0,0,121.214,196.267Z" transform="translate(-119.467 -196.267)" fill="#ff6b3d"/>
        </g>
      </g>
      <g id="Group_412" data-name="Group 412" transform="translate(73.384 73.383)">
        <g id="Group_411" data-name="Group 411">
          <path id="Path_219" data-name="Path 219" d="M367.137,409.6h-6.989a1.748,1.748,0,0,0-1.747,1.747v6.989a1.748,1.748,0,0,0,1.747,1.747h6.989a1.748,1.748,0,0,0,1.747-1.747v-6.989A1.748,1.748,0,0,0,367.137,409.6Zm-1.747,6.989H361.9v-3.495h3.495Z" transform="translate(-358.401 -409.6)" fill="#ff6b3d"/>
        </g>
      </g>
      <g id="Group_414" data-name="Group 414" transform="translate(76.878 29.703)">
        <g id="Group_413" data-name="Group 413">
          <path id="Path_220" data-name="Path 220" d="M377.214,196.267a1.748,1.748,0,0,0-1.747,1.747v43.681a1.747,1.747,0,1,0,3.494,0V198.014A1.748,1.748,0,0,0,377.214,196.267Z" transform="translate(-375.467 -196.267)" fill="#ff6b3d"/>
        </g>
      </g>
      <g id="Group_416" data-name="Group 416" transform="translate(33.197 45.428)">
        <g id="Group_415" data-name="Group 415">
          <path id="Path_221" data-name="Path 221" d="M195.858,273.067H166.847a4.719,4.719,0,0,0-4.714,4.714v8.044a4.719,4.719,0,0,0,4.714,4.714h29.011a4.719,4.719,0,0,0,4.714-4.714v-8.044A4.719,4.719,0,0,0,195.858,273.067Zm1.22,12.758a1.221,1.221,0,0,1-1.22,1.22H166.847a1.221,1.221,0,0,1-1.219-1.22v-8.044a1.221,1.221,0,0,1,1.219-1.219h29.011a1.221,1.221,0,0,1,1.22,1.219Z" transform="translate(-162.133 -273.067)" fill="#ff6b3d"/>
        </g>
      </g>
      <g id="Group_418" data-name="Group 418" transform="translate(38.439 59.406)">
        <g id="Group_417" data-name="Group 417">
          <path id="Path_222" data-name="Path 222" d="M189.481,341.333a1.748,1.748,0,0,0-1.747,1.747v20.967a1.747,1.747,0,0,0,3.494,0V343.08A1.748,1.748,0,0,0,189.481,341.333Z" transform="translate(-187.734 -341.333)" fill="#ff6b3d"/>
        </g>
      </g>
      <g id="Group_420" data-name="Group 420" transform="translate(62.9 59.406)">
        <g id="Group_419" data-name="Group 419">
          <path id="Path_223" data-name="Path 223" d="M308.947,341.333a1.748,1.748,0,0,0-1.747,1.747v20.967a1.747,1.747,0,0,0,3.494,0V343.08A1.748,1.748,0,0,0,308.947,341.333Z" transform="translate(-307.2 -341.333)" fill="#ff6b3d"/>
        </g>
      </g>
      <g id="Group_422" data-name="Group 422" transform="translate(62.9 52.417)">
        <g id="Group_421" data-name="Group 421">
          <path id="Path_224" data-name="Path 224" d="M314.189,307.2h-5.242a1.747,1.747,0,1,0,0,3.494h5.242a1.747,1.747,0,1,0,0-3.494Z" transform="translate(-307.2 -307.2)" fill="#ff6b3d"/>
        </g>
      </g>
      <g id="Group_424" data-name="Group 424" transform="translate(33.197 52.417)">
        <g id="Group_423" data-name="Group 423">
          <path id="Path_225" data-name="Path 225" d="M186.6,307.2H163.881a1.747,1.747,0,1,0,0,3.494H186.6a1.747,1.747,0,1,0,0-3.494Z" transform="translate(-162.134 -307.2)" fill="#ff6b3d"/>
        </g>
      </g>
    </g>
  </g>
</svg>
