<svg xmlns="http://www.w3.org/2000/svg" width="105.923" height="103.271" viewBox="0 0 105.923 103.271">
  <g id="spinning" transform="translate(0 -0.001)">
    <path id="Path_233" data-name="Path 233" d="M246.79,339.146a1.551,1.551,0,0,0,1.552-1.552v-2.086a1.552,1.552,0,0,0-3.1,0v2.086A1.551,1.551,0,0,0,246.79,339.146Zm0,0" transform="translate(-194.504 -264.868)" fill="#ff6b3d"/>
    <path id="Path_234" data-name="Path 234" d="M358.2,339.146a1.551,1.551,0,0,0,1.552-1.552v-2.086a1.552,1.552,0,0,0-3.1,0v2.086A1.551,1.551,0,0,0,358.2,339.146Zm0,0" transform="translate(-282.865 -264.868)" fill="#ff6b3d"/>
    <path id="Path_235" data-name="Path 235" d="M291.588,347.7a5.312,5.312,0,0,0,4.012-1.789,1.551,1.551,0,0,0-2.336-2.042,2.293,2.293,0,0,1-3.352,0,1.551,1.551,0,0,0-2.336,2.042A5.312,5.312,0,0,0,291.588,347.7Zm0,0" transform="translate(-227.778 -272.308)" fill="#ff6b3d"/>
    <path id="Path_236" data-name="Path 236" d="M67.66,8.434a5.531,5.531,0,0,0,0,11.062h4.149c.142.9.373,2.326.746,4.607l-9.6,9.819a1.552,1.552,0,1,0,2.218,2.17l7.98-8.159L74.7,37.259,56.645,55.81l-9.226-1.568,13.448-13.75a1.552,1.552,0,1,0-2.218-2.17L43.7,53.609l-10.77-1.83a19.036,19.036,0,0,0-3.183-.271c-.394,0-.786.015-1.177.04L22.979,37.638h3.266a5.119,5.119,0,0,0,4.6-7.12,8.878,8.878,0,0,0-7.881-5.3c-4.759-.146-5.891-.75-7.09-1.39a10.728,10.728,0,0,0-5.051-1.314A10.5,10.5,0,0,0,.343,33a4.642,4.642,0,0,0,4.636,4.637h6.079l2.18,5.43H10.595a3.678,3.678,0,0,0-3.242-1.928,3.61,3.61,0,0,0-.373.019l-3.655.368A3.7,3.7,0,0,0,.018,45.574l.591,5.865a3.744,3.744,0,0,0,4.046,3.306l3.655-.369a3.7,3.7,0,0,0,3.07-2.339l5.46,0L18.232,55.5a18.782,18.782,0,0,0-2.1,1.91,18.729,18.729,0,0,0-.608,25L6.1,92.051H5.606A5.169,5.169,0,0,0,.443,97.214V99.8a3.477,3.477,0,0,0,3.473,3.473H23.155A3.477,3.477,0,0,0,26.628,99.8V97.214a5.156,5.156,0,0,0-2-4.073L28.7,88.964c.352.019.7.032,1.061.032a19.231,19.231,0,0,0,1.961-.1,4.536,4.536,0,0,0,6.5,4.66l10.944-5.372a4.508,4.508,0,0,0,1.775-1.561l16.524-1.958a21.3,21.3,0,0,0,14.973,6.073c.4,0,.793-.013,1.19-.035l.225,1.35H82.812a5.169,5.169,0,0,0-5.163,5.163V99.8a3.479,3.479,0,0,0,3.474,3.474H100.36a3.478,3.478,0,0,0,3.474-3.474V97.214a5.169,5.169,0,0,0-5.163-5.163H96.1l-.92-5.5a21.715,21.715,0,0,0,5.779-6.4,1.551,1.551,0,0,0-2.672-1.578,18.582,18.582,0,0,1-3.695,4.464L89.436,52.216a18.43,18.43,0,0,1,10.947,21.076,1.551,1.551,0,0,0,3.027.681A21.525,21.525,0,0,0,88.85,48.711L87.063,38.026H91.6a3.872,3.872,0,0,0,3.37,1.95c.215,0,3.886-.6,3.889-.6a3.922,3.922,0,0,0,3.192-4.475s-1.836-10.978-1.838-10.991a3.94,3.94,0,0,0-4.475-3.192l-3.245.542a3.921,3.921,0,0,0-3.065,2.668H84.7L83.964,19.5h.861A20.985,20.985,0,0,0,98.484,14.44L104,9.707a5.538,5.538,0,0,0,.595-7.8,5.588,5.588,0,0,0-7.8-.594L91.278,6.045a9.911,9.911,0,0,1-6.453,2.39ZM3.446,33a7.392,7.392,0,0,1,7.381-7.386,7.612,7.612,0,0,1,3.59.949c1.46.779,2.971,1.586,8.455,1.754A5.763,5.763,0,0,1,28,31.747a1.967,1.967,0,0,1-1.752,2.788H4.98A1.535,1.535,0,0,1,3.446,33ZM20.877,53.763,14.4,37.639h5.233l5.776,14.384a18.832,18.832,0,0,0-4.534,1.74ZM8,51.288l-3.656.369a.589.589,0,0,1-.647-.529l-.591-5.865a.592.592,0,0,1,.529-.647l3.655-.369c.021,0,.042,0,.062,0a.588.588,0,0,1,.585.533l.591,5.865A.591.591,0,0,1,8,51.288Zm7.595-2.352-4.119,0L11.2,46.172h3.287Zm85.137,48.278V99.8a.371.371,0,0,1-.371.371H81.124a.371.371,0,0,1-.371-.371V97.214a2.062,2.062,0,0,1,2.06-2.06H98.672a2.062,2.062,0,0,1,2.06,2.06ZM87.776,61.1l-6.118-1.04C79.862,49.272,76,26.031,74.946,19.5h5.871Zm-9.357-1.59L68.067,57.752A18.491,18.491,0,0,1,77.1,51.624Zm6.989,23.025,5.837-.692,1.708,10.207H87ZM75.351,41.044c.377,2.267.79,4.759,1.245,7.5A21.6,21.6,0,0,0,64.643,57.17l-4.281-.728ZM23.525,99.8a.371.371,0,0,1-.37.371H3.916a.371.371,0,0,1-.37-.371V97.214a2.062,2.062,0,0,1,2.059-2.06h15.86a2.084,2.084,0,0,1,2.06,2.06V99.8Zm-2.162-7.747H10.439L17.728,84.6a18.807,18.807,0,0,0,7.224,3.765Zm8.4-6.163a15.818,15.818,0,0,1-10.854-4.407,15.639,15.639,0,0,1,10.837-26.87,15.915,15.915,0,0,1,2.663.226l55.912,9.5L90.733,78.78,51.647,83.411a8.873,8.873,0,0,0-.231-.882,4.584,4.584,0,0,0-6.252-2.492l-1.9.93-2.281-3.439a12.366,12.366,0,1,0-7.558,5.019L35.056,85s-.945.465-1,.5a35.128,35.128,0,0,1-4.3.393Zm9.333-11.213-4.466-6.731a4.536,4.536,0,1,0-7.56,5.016l4.467,6.732c-.229.017-.457.026-.688.026a9.271,9.271,0,1,1,8.246-5.043Zm-9.44-3.43a1.435,1.435,0,0,1,.4-1.986,1.459,1.459,0,0,1,1.987.4L40.46,82.347,37.865,83.62ZM47.8,85.4,36.851,90.768a1.443,1.443,0,0,1-1.918-.655,1.471,1.471,0,0,1,.655-1.918l10.944-5.372A1.434,1.434,0,0,1,47.8,85.4Zm23.878-1.232L82.323,82.9l.788,4.717a18.228,18.228,0,0,1-11.437-3.456ZM92.5,24.645a.786.786,0,0,1,.505-.321l3.244-.542a.788.788,0,0,1,.9.643L98.99,35.417a.792.792,0,0,1-.643.9l-3.245.543a.782.782,0,0,1-.9-.643s-1.828-10.927-1.839-10.993a.779.779,0,0,1,.139-.58Zm-2.983,2.389,1.32,7.888H86.544l-1.32-7.888ZM93.3,8.4l5.512-4.732a2.428,2.428,0,0,1,3.164,3.685l-5.513,4.732a17.875,17.875,0,0,1-11.637,4.31H67.659a2.428,2.428,0,0,1,0-4.856H84.825A13.017,13.017,0,0,0,93.3,8.4Zm0,0" transform="translate(0 0)" fill="#ff6b3d"/>
  </g>
</svg>
