<svg id="undraw_healthy_lifestyle_6tyl" xmlns="http://www.w3.org/2000/svg" width="903" height="823.914" viewBox="0 0 903 823.914">
  <rect id="Rectangle_110" data-name="Rectangle 110" width="701" height="391" transform="translate(124 315.313)" fill="#3f3d56"/>
  <path id="Path_429" data-name="Path 429" d="M297.819,386.67l46.153-17.347c-13.358-16.208-31.113-32.765-49.852-48.256l-63.673,10.78,52.565-19.757c-46.356-36.66-94.506-65.3-94.506-65.3s-52.63,147.377-37.16,212.845c8.973,37.973,33.153,67.946,63.464,83.69l1.233-84.6,16.465,91.929a101.958,101.958,0,0,0,54.345,2.116c59.368-14.029,94.955-78.474,79.485-143.942-2.317-9.807-7.942-20.312-15.812-31.086Z" transform="translate(-148.5 -38.043)" fill="#d0cde1"/>
  <ellipse id="Ellipse_27" data-name="Ellipse 27" cx="32.153" cy="10.97" rx="32.153" ry="10.97" transform="translate(117.714 491.936) rotate(-30)" opacity="0.1"/>
  <path id="Path_430" data-name="Path 430" d="M483.31,744.356H420.25A265.9,265.9,0,0,1,395,717.1l-43.96-74.08-55.08-92.85-6.13-10.32-5.04-8.5,27.24-15.13,5.79,7.72,1.13,1.5,6.64,8.84,44.72,59.57,4.89-44.72h18.16l-14.91,55.56Z" transform="translate(-148.5 -38.043)" fill="#f2f2f2"/>
  <path id="Path_431" data-name="Path 431" d="M880.794,390.57l-52.226-5.212c9.3-20.33,23.038-42.222,38.075-63.286l68.451-6.339L875.612,309.8c37.652-50.4,79.345-93.044,79.345-93.044s94.481,137.2,96.487,208.783c1.163,41.519-15.507,78.971-42.379,103.463L984.64,442.314l8.225,99.075a108.533,108.533,0,0,1-55.326,17.052C872.627,560.26,818.379,503.7,816.374,432.124c-.3-10.723,2.61-23.069,7.757-36.306Z" transform="translate(-148.5 -38.043)" fill="#d0cde1"/>
  <ellipse id="Ellipse_28" data-name="Ellipse 28" cx="11.678" cy="34.227" rx="11.678" ry="34.227" transform="matrix(0.261, -0.965, 0.965, 0.261, 731.853, 496.014)" opacity="0.1"/>
  <path id="Path_432" data-name="Path 432" d="M933.8,535.826l-.31,1.11-2.55,9.03-3.48,12.29v.01l-31.25,110.57-21.08,74.57c-.36.32-.72.63-1.09.95H814.12l43.4-107.44-30.54-53.07,18.68-4.97,17.27,44.65,29.7-73.5.01-.01,4.4-10.91.75-1.86,3.84-9.53,31.17,7.87Z" transform="translate(-148.5 -38.043)" fill="#f2f2f2"/>
  <path id="Path_433" data-name="Path 433" d="M535.521,769.658l-24.966,92.3h85.49l9.835-9.079,3.783,9.079h91.543s9.835-59.768-2.27-64.307S535.521,769.658,535.521,769.658Z" transform="translate(-148.5 -38.043)" fill="#2f2e41"/>
  <circle id="Ellipse_29" data-name="Ellipse 29" cx="52.202" cy="52.202" r="52.202" transform="translate(430.901 263.31)" fill="#a0616a"/>
  <path id="Path_434" data-name="Path 434" d="M592.641,379.656s9.835,74.142-5.3,82.464,90.029,9.079,90.029,9.079-23.453-64.307-12.861-83.977Z" transform="translate(-148.5 -38.043)" fill="#a0616a"/>
  <path id="Path_435" data-name="Path 435" d="M627.82,449.637s-26.486-3.956-32.157-17.109l-79.812,35.266s14.374,105.161,22.7,124.074l-10.591,189.9s74.142,49.176,174.007,22.7l24.966-208.808,27.236-124.074-87.2-35.022S649.76,448.124,627.82,449.637Z" transform="translate(-148.5 -38.043)" fill="#ff6b3d"/>
  <path id="Path_436" data-name="Path 436" d="M683.048,688.707s-96.082-3.026-89.273,25.723,95.325-1.513,95.325-1.513Z" transform="translate(-148.5 -38.043)" fill="#a0616a"/>
  <path id="Path_437" data-name="Path 437" d="M588.176,304.177l-9.76-3.908s20.408-22.468,48.8-20.514l-7.986-8.792s19.521-7.815,37.267,12.7c9.329,10.784,20.122,23.46,26.851,37.74H693.8l-4.363,9.606,15.269,9.606-15.673-1.726a53.677,53.677,0,0,1,.425,15.933,20.615,20.615,0,0,1-7.549,13.486h0s-12.1-25.056-12.1-28.964v9.769s-9.76-8.792-9.76-14.653l-5.324,6.838-2.662-10.746L619.232,341.3l5.324-8.792-20.408,2.931,7.986-10.746s-23.07,12.7-23.958,23.445-7.64,20.928-7.64,20.928S562.444,318.83,588.176,304.177Z" transform="translate(-148.5 -38.043)" fill="#2f2e41"/>
  <path id="Path_438" data-name="Path 438" d="M651.652,658.022V670.9a.45.45,0,0,1-.449.449h-.32V738.43a7,7,0,0,1-7,7H601.968a7,7,0,0,1-7-7V673.7h-.232a.317.317,0,0,1-.318-.316v-7.329a.318.318,0,0,1,.318-.318h.232v-2.76h-.233a.333.333,0,0,1-.331-.333v-7.229a.332.332,0,0,1,.331-.331h.233v-3.768h-.237a.294.294,0,0,1-.294-.293v-3.946a.3.3,0,0,1,.294-.3h.237v-7.987a7,7,0,0,1,7-7h41.916a7,7,0,0,1,7,7v18.778h.32a.45.45,0,0,1,.449.449Z" transform="translate(-148.5 -38.043)" fill="#3f3d56"/>
  <circle id="Ellipse_30" data-name="Ellipse 30" cx="6.862" cy="6.862" r="6.862" transform="translate(467.634 616.774)" fill="#f2f2f2"/>
  <path id="Path_439" data-name="Path 439" d="M730.711,471.577h23.453s74.9,163.415,56.741,183.085-127.857,73.385-127.857,73.385-8.322-41.61-15.888-41.61l75.655-46.906-37.071-88.516Z" transform="translate(-148.5 -38.043)" fill="#ff6b3d"/>
  <path id="Path_440" data-name="Path 440" d="M562.757,681.9s85.49,45.393,69.6,65.063-92.3-34.8-92.3-34.8Z" transform="translate(-148.5 -38.043)" fill="#a0616a"/>
  <path id="Path_441" data-name="Path 441" d="M526.442,468.551H515.851s-15.131,14.374-19.67,46.906L452.228,613.4a22.135,22.135,0,0,0,.308,18.78c9.754,19.978,35.428,65.06,73.906,78.469l19.67,15.131s-2.27-37.071,28.749-37.071l-52.959-57.5,20.427-66.576Z" transform="translate(-148.5 -38.043)" fill="#ff6b3d"/>
  <rect id="Rectangle_111" data-name="Rectangle 111" width="260.521" height="200.973" transform="translate(475)" fill="#3f3d56"/>
  <rect id="Rectangle_112" data-name="Rectangle 112" width="36.39" height="95.938" transform="translate(520.074 72.367)" fill="#d0cde1"/>
  <rect id="Rectangle_113" data-name="Rectangle 113" width="36.39" height="58.721" transform="translate(587.065 109.584)" fill="#d0cde1"/>
  <rect id="Rectangle_114" data-name="Rectangle 114" width="36.39" height="135.636" transform="translate(654.057 32.668)" fill="#d0cde1"/>
  <circle id="Ellipse_31" data-name="Ellipse 31" cx="18.195" cy="18.195" r="18.195" transform="translate(587.066 54.172)" fill="#ff6b3d"/>
  <rect id="Rectangle_115" data-name="Rectangle 115" width="260.521" height="200.973" transform="translate(151.479 38.652)" fill="#3f3d56"/>
  <path id="Path_442" data-name="Path 442" d="M339.677,236.316s2.481-66.991,52.1-56.24S515.012,128.8,515.012,128.8" transform="translate(-148.5 -38.043)" fill="#ff6b3d"/>
  <path id="Path_443" data-name="Path 443" d="M191.591,194.965V66.772H175.05V211.506H388.429V194.965Z" fill="#d0cde1"/>
  <path id="Path_444" data-name="Path 444" d="M586.848,564.675l9.055,10.564c3.364-.641,6.877-1.4,10.5-2.242l-2.6-8.322,6.359,7.419C648.488,562.665,696,544.336,696,544.336s-51.294,3.761-89.593-4.606c-16.945-3.7-34.38,4.7-41.334,20.588-4.042,9.236-3.407,17.238,10.928,17.238a94.678,94.678,0,0,0,14.448-1.359Z" transform="translate(-148.5 -38.043)" fill="#2f2e41"/>
</svg>
