<svg xmlns="http://www.w3.org/2000/svg" width="54.858" height="54.858" viewBox="0 0 54.858 54.858">
  <path id="twitter" d="M27.429,0A27.429,27.429,0,1,0,54.858,27.429,27.432,27.432,0,0,0,27.429,0ZM39.953,21.386q.018.4.018.814c0,8.319-6.332,17.913-17.913,17.913h0a17.821,17.821,0,0,1-9.65-2.828,12.8,12.8,0,0,0,1.5.087,12.633,12.633,0,0,0,7.82-2.695A6.3,6.3,0,0,1,15.847,30.3a6.275,6.275,0,0,0,2.844-.108,6.3,6.3,0,0,1-5.051-6.171c0-.028,0-.054,0-.08a6.252,6.252,0,0,0,2.851.787,6.3,6.3,0,0,1-1.949-8.405A17.874,17.874,0,0,0,27.52,22.9a6.3,6.3,0,0,1,10.728-5.741,12.628,12.628,0,0,0,4-1.528,6.32,6.32,0,0,1-2.769,3.482,12.556,12.556,0,0,0,3.615-.992,12.794,12.794,0,0,1-3.14,3.26Zm0,0" fill="#ff6747"/>
</svg>
